<svg width="789" height="900" viewBox="0 0 789 900" fill="none" xmlns="http://www.w3.org/2000/svg">
<path d="M353.749 475.633C614.501 439.5 401 355.5 789 -15.5V902.866H41.1925L23.2808 935.801C-16.1246 945.864 -51.5819 531.802 353.749 475.633Z" fill="#4DA6BA" fill-opacity="0.38"/>
<path d="M813.036 159.401C725.034 240.464 645.541 329.532 575.707 425.316C505.852 521.009 445.837 622.867 396.505 729.459C368.947 789.242 344.819 850.39 324.228 912.63C320.028 925.292 341.291 928.857 345.445 916.336C381.958 806.59 429.629 700.436 487.774 599.397C545.627 498.731 613.534 403.578 690.542 315.276C734.099 265.354 780.482 217.733 829.48 172.629C839.522 163.381 822.996 150.228 813.036 159.401L813.036 159.401Z" fill="white" fill-opacity="0.38"/>
<g clip-path="url(#clip0_532_537)">
<path d="M355.874 716.515C354.103 712.28 353.908 707.552 355.325 703.187C356.742 698.821 359.677 695.105 363.601 692.71C364.907 691.917 363.713 689.864 362.4 690.66C357.9 693.341 354.541 697.575 352.96 702.561C351.379 707.546 351.684 712.937 353.819 717.713C354.42 719.113 356.47 717.905 355.874 716.515H355.874Z" fill="#3F3D56"/>
<path d="M356.554 719.707C353.345 714.035 354.1 707.247 355.254 701.114C356.459 694.711 358.038 688.209 356.672 681.697C356.052 678.536 354.585 675.6 352.427 673.204C351.387 672.078 349.708 673.76 350.744 674.883C354.78 679.256 355.248 685.6 354.593 691.234C353.821 697.88 351.633 704.355 351.905 711.108C351.976 714.533 352.865 717.892 354.499 720.905C354.664 721.166 354.924 721.352 355.224 721.425C355.524 721.498 355.84 721.452 356.107 721.296C356.373 721.141 356.569 720.888 356.652 720.592C356.735 720.295 356.7 719.978 356.554 719.707L356.554 719.707Z" fill="#3F3D56"/>
<path d="M373.776 737.82H333.33C332.384 737.819 331.477 737.443 330.808 736.776C330.139 736.108 329.763 735.203 329.762 734.259V722.406C329.765 719.36 330.979 716.44 333.138 714.286C335.297 712.132 338.224 710.921 341.277 710.918H347.209C347.524 710.917 347.826 710.792 348.049 710.57C348.272 710.347 348.398 710.045 348.398 709.731V704.192C348.399 703.668 348.608 703.165 348.98 702.794C349.351 702.423 349.855 702.214 350.381 702.214H356.725C357.251 702.214 357.755 702.423 358.126 702.794C358.498 703.165 358.707 703.668 358.708 704.192V709.731C358.708 710.045 358.834 710.347 359.057 710.57C359.28 710.792 359.582 710.917 359.897 710.918H365.829C368.882 710.921 371.809 712.132 373.968 714.286C376.126 716.44 377.341 719.36 377.344 722.406V734.259C377.343 735.203 376.967 736.108 376.298 736.776C375.629 737.443 374.722 737.819 373.776 737.82V737.82Z" fill="#FF6584"/>
<path d="M354.175 666.639C355.026 671.148 353.972 675.131 351.82 675.536C349.668 675.94 347.233 672.613 346.381 668.104C345.53 663.595 348.149 656.097 348.149 656.097C348.149 656.097 353.323 662.13 354.175 666.639Z" fill="#4DA6BA"/>
<path d="M370.506 687.617C367.81 691.334 364.186 693.308 362.412 692.027C360.638 690.746 361.386 686.694 364.082 682.977C366.779 679.261 374.037 676.004 374.037 676.004C374.037 676.004 373.203 683.9 370.506 687.617Z" fill="#4DA6BA"/>
<path d="M281.327 431.666C279.556 427.431 279.361 422.704 280.778 418.338C282.195 413.973 285.13 410.257 289.054 407.861C290.36 407.069 289.166 405.015 287.853 405.812C283.353 408.493 279.994 412.727 278.413 417.712C276.832 422.698 277.138 428.089 279.273 432.864C279.873 434.265 281.923 433.057 281.327 431.666H281.327Z" fill="#3F3D56"/>
<path d="M282.008 434.859C278.799 429.187 279.554 422.399 280.708 416.265C281.913 409.862 283.492 403.361 282.126 396.849C281.506 393.687 280.039 390.752 277.881 388.356C276.841 387.229 275.162 388.911 276.198 390.034C280.234 394.407 280.702 400.752 280.047 406.386C279.275 413.031 277.087 419.507 277.359 426.259C277.43 429.685 278.319 433.043 279.953 436.057C280.118 436.317 280.378 436.503 280.678 436.576C280.978 436.649 281.294 436.603 281.561 436.448C281.827 436.293 282.023 436.04 282.106 435.743C282.19 435.447 282.154 435.13 282.008 434.859L282.008 434.859Z" fill="#3F3D56"/>
<path d="M299.23 452.971H258.785C257.838 452.97 256.931 452.595 256.262 451.927C255.593 451.26 255.217 450.355 255.216 449.411V437.558C255.219 434.512 256.434 431.592 258.592 429.438C260.751 427.284 263.678 426.073 266.731 426.069H272.663C272.978 426.069 273.28 425.944 273.504 425.721C273.727 425.499 273.852 425.197 273.852 424.882V419.343C273.853 418.819 274.062 418.316 274.434 417.945C274.805 417.575 275.309 417.366 275.835 417.365H282.179C282.705 417.366 283.209 417.575 283.58 417.945C283.952 418.316 284.161 418.819 284.162 419.343V424.882C284.162 425.197 284.288 425.499 284.511 425.721C284.734 425.944 285.036 426.069 285.351 426.069H291.284C294.336 426.073 297.263 427.284 299.422 429.438C301.581 431.592 302.795 434.512 302.798 437.558V449.411C302.797 450.355 302.421 451.26 301.752 451.927C301.083 452.595 300.176 452.97 299.23 452.971V452.971Z" fill="#CCCCCC"/>
<path d="M279.629 381.791C280.48 386.3 279.426 390.283 277.274 390.688C275.122 391.092 272.687 387.765 271.835 383.256C270.984 378.747 273.603 371.249 273.603 371.249C273.603 371.249 278.777 377.282 279.629 381.791Z" fill="#4DA6BA"/>
<path d="M295.96 402.769C293.264 406.485 289.64 408.46 287.866 407.179C286.092 405.897 286.84 401.846 289.536 398.129C292.233 394.412 299.491 391.155 299.491 391.155C299.491 391.155 298.657 399.052 295.96 402.769Z" fill="#4DA6BA"/>
<path d="M200.892 575.219H168.377V587.087H200.892V575.219Z" fill="#4DA6BA"/>
<path d="M200.892 613.99H168.377V625.859H200.892V613.99Z" fill="#4DA6BA"/>
<path d="M399.153 829.209H156.482C152.907 829.205 149.481 827.786 146.953 825.265C144.426 822.743 143.004 819.324 143 815.758V373.451C143.004 369.885 144.426 366.466 146.953 363.944C149.481 361.422 152.907 360.004 156.482 360H399.153C402.727 360.004 406.154 361.422 408.681 363.944C411.209 366.466 412.63 369.885 412.634 373.451V815.758C412.63 819.324 411.209 822.743 408.681 825.265C406.154 827.786 402.727 829.205 399.153 829.209V829.209ZM156.482 361.582C153.328 361.586 150.304 362.838 148.074 365.063C145.844 367.288 144.59 370.305 144.586 373.451V815.758C144.59 818.904 145.844 821.921 148.074 824.146C150.304 826.371 153.328 827.623 156.482 827.626H399.153C402.306 827.623 405.33 826.371 407.56 824.146C409.79 821.921 411.045 818.904 411.048 815.758V373.451C411.045 370.305 409.79 367.288 407.56 365.063C405.33 362.838 402.306 361.586 399.153 361.582H156.482Z" fill="#3F3D56"/>
<path d="M411.841 451.351H143.793V452.934H411.841V451.351Z" fill="#3F3D56"/>
<path d="M411.841 546.326H143.793V547.908H411.841V546.326Z" fill="#3F3D56"/>
<path d="M411.841 641.3H143.793V642.883H411.841V641.3Z" fill="#3F3D56"/>
<path d="M411.841 736.275H143.793V737.857H411.841V736.275Z" fill="#3F3D56"/>
<path d="M198.514 643.266H171.55C170.499 643.265 169.491 642.848 168.748 642.106C168.004 641.364 167.586 640.359 167.585 639.31V562.559C167.586 561.51 168.004 560.504 168.748 559.763C169.491 559.021 170.499 558.604 171.55 558.603H198.514C199.565 558.604 200.573 559.021 201.316 559.763C202.059 560.504 202.478 561.51 202.479 562.559V639.31C202.478 640.359 202.059 641.364 201.316 642.106C200.573 642.848 199.565 643.265 198.514 643.266V643.266ZM171.55 560.185C170.919 560.186 170.315 560.436 169.869 560.881C169.423 561.326 169.172 561.93 169.171 562.559V639.31C169.172 639.939 169.423 640.542 169.869 640.987C170.315 641.432 170.919 641.683 171.55 641.683H198.514C199.144 641.683 199.749 641.432 200.195 640.987C200.641 640.542 200.892 639.939 200.893 639.31V562.559C200.892 561.93 200.641 561.326 200.195 560.881C199.749 560.436 199.144 560.186 198.514 560.185H171.55Z" fill="#3F3D56"/>
<path d="M250.854 575.219H218.339V587.087H250.854V575.219Z" fill="#4DA6BA"/>
<path d="M250.854 613.99H218.339V625.859H250.854V613.99Z" fill="#4DA6BA"/>
<path d="M248.475 643.266H221.511C220.46 643.265 219.452 642.848 218.709 642.106C217.965 641.364 217.547 640.359 217.546 639.31V562.559C217.547 561.51 217.965 560.504 218.709 559.763C219.452 559.021 220.46 558.604 221.511 558.603H248.475C249.526 558.604 250.534 559.021 251.277 559.763C252.02 560.504 252.439 561.51 252.44 562.559V639.31C252.439 640.359 252.02 641.364 251.277 642.106C250.534 642.848 249.526 643.265 248.475 643.266V643.266ZM221.511 560.185C220.88 560.186 220.276 560.436 219.83 560.881C219.384 561.326 219.133 561.93 219.132 562.559V639.31C219.133 639.939 219.384 640.542 219.83 640.987C220.276 641.432 220.88 641.683 221.511 641.683H248.475C249.105 641.683 249.71 641.432 250.156 640.987C250.602 640.542 250.853 639.939 250.854 639.31V562.559C250.853 561.93 250.602 561.326 250.156 560.881C249.71 560.436 249.105 560.186 248.475 560.185H221.511Z" fill="#3F3D56"/>
<path d="M330.158 479.478H297.644V491.347H330.158V479.478Z" fill="#4DA6BA"/>
<path d="M330.158 518.249H297.644V530.118H330.158V518.249Z" fill="#4DA6BA"/>
<path d="M327.779 547.525H300.816C299.765 547.524 298.757 547.107 298.013 546.365C297.27 545.624 296.852 544.618 296.851 543.569V466.818C296.852 465.769 297.27 464.764 298.013 464.022C298.757 463.28 299.765 462.863 300.816 462.862H327.779C328.83 462.863 329.838 463.28 330.582 464.022C331.325 464.764 331.743 465.769 331.744 466.818V543.569C331.743 544.618 331.325 545.624 330.582 546.365C329.838 547.107 328.83 547.524 327.779 547.525V547.525ZM300.816 464.444C300.185 464.445 299.58 464.695 299.134 465.14C298.688 465.585 298.437 466.189 298.437 466.818V543.569C298.437 544.198 298.688 544.802 299.134 545.247C299.58 545.692 300.185 545.942 300.816 545.943H327.779C328.41 545.942 329.015 545.692 329.461 545.247C329.907 544.802 330.158 544.198 330.158 543.569V466.818C330.158 466.189 329.907 465.585 329.461 465.14C329.015 464.695 328.41 464.445 327.779 464.444H300.816Z" fill="#3F3D56"/>
<path d="M380.12 479.478H347.605V491.347H380.12V479.478Z" fill="#4DA6BA"/>
<path d="M380.12 518.249H347.605V530.118H380.12V518.249Z" fill="#4DA6BA"/>
<path d="M377.74 547.525H350.777C349.725 547.524 348.718 547.107 347.974 546.365C347.231 545.624 346.813 544.618 346.812 543.569V466.818C346.813 465.769 347.231 464.764 347.974 464.022C348.718 463.28 349.725 462.863 350.777 462.862H377.74C378.791 462.863 379.799 463.28 380.543 464.022C381.286 464.764 381.704 465.769 381.705 466.818V543.569C381.704 544.618 381.286 545.624 380.543 546.365C379.799 547.107 378.791 547.524 377.74 547.525V547.525ZM350.777 464.444C350.146 464.445 349.541 464.695 349.095 465.14C348.649 465.585 348.398 466.189 348.398 466.818V543.569C348.398 544.198 348.649 544.802 349.095 545.247C349.541 545.692 350.146 545.942 350.777 545.943H377.74C378.371 545.942 378.976 545.692 379.422 545.247C379.868 544.802 380.119 544.198 380.119 543.569V466.818C380.119 466.189 379.868 465.585 379.422 465.14C378.976 464.695 378.371 464.445 377.74 464.444H350.777Z" fill="#3F3D56"/>
<path d="M290.736 568.131L260.299 579.542L264.483 590.652L294.92 579.241L290.736 568.131Z" fill="#4DA6BA"/>
<path d="M304.405 604.424L273.968 615.835L278.152 626.946L308.589 615.534L304.405 604.424Z" fill="#4DA6BA"/>
<path d="M285.861 642.382C285.055 642.38 284.268 642.134 283.605 641.676C282.943 641.217 282.436 640.568 282.152 639.815L255.093 567.969C254.724 566.987 254.761 565.899 255.196 564.944C255.63 563.989 256.426 563.245 257.41 562.875L282.65 553.412C283.138 553.229 283.656 553.144 284.177 553.161C284.697 553.178 285.209 553.297 285.683 553.512C286.158 553.727 286.585 554.033 286.941 554.412C287.296 554.792 287.574 555.237 287.757 555.724L314.815 627.569C315.184 628.552 315.147 629.64 314.713 630.595C314.278 631.55 313.482 632.294 312.499 632.664H312.499L287.258 642.127C286.812 642.295 286.339 642.382 285.861 642.382V642.382ZM284.046 554.74C283.76 554.74 283.476 554.792 283.208 554.893L257.968 564.356C257.378 564.578 256.9 565.025 256.639 565.598C256.379 566.171 256.356 566.824 256.578 567.413L283.636 639.259C283.746 639.551 283.913 639.818 284.126 640.046C284.34 640.273 284.596 640.457 284.88 640.586C285.165 640.714 285.472 640.786 285.784 640.796C286.097 640.807 286.408 640.756 286.7 640.646L311.941 631.183C312.531 630.961 313.009 630.514 313.269 629.941C313.53 629.368 313.552 628.715 313.331 628.126L286.272 556.28C286.101 555.828 285.797 555.439 285.4 555.164C285.002 554.889 284.53 554.741 284.046 554.74V554.74Z" fill="#3F3D56"/>
<path d="M181.296 473.972L150.859 485.384L155.044 496.494L185.481 485.083L181.296 473.972Z" fill="#4DA6BA"/>
<path d="M194.964 510.266L164.527 521.677L168.712 532.787L199.148 521.376L194.964 510.266Z" fill="#4DA6BA"/>
<path d="M176.422 548.224C175.615 548.222 174.829 547.976 174.166 547.517C173.503 547.059 172.996 546.41 172.712 545.657L145.653 473.811C145.285 472.829 145.322 471.741 145.756 470.786C146.19 469.831 146.987 469.087 147.97 468.716L173.211 459.254C173.698 459.071 174.217 458.986 174.737 459.003C175.258 459.02 175.77 459.139 176.244 459.354C176.718 459.569 177.145 459.875 177.501 460.254C177.857 460.633 178.134 461.079 178.317 461.566L205.376 533.411C205.745 534.393 205.708 535.481 205.273 536.437C204.839 537.392 204.043 538.136 203.059 538.506H203.059L177.819 547.969C177.372 548.137 176.899 548.224 176.422 548.224ZM174.607 460.582C174.32 460.582 174.037 460.634 173.769 460.735L148.528 470.198C147.938 470.42 147.46 470.866 147.2 471.44C146.939 472.013 146.917 472.666 147.138 473.255L174.197 545.101C174.307 545.392 174.473 545.66 174.687 545.888C174.9 546.115 175.156 546.299 175.441 546.427C175.725 546.556 176.033 546.628 176.345 546.638C176.657 546.648 176.968 546.597 177.261 546.488L202.501 537.025C203.091 536.803 203.569 536.356 203.83 535.783C204.09 535.21 204.112 534.557 203.891 533.968L176.833 462.122C176.662 461.67 176.358 461.281 175.96 461.006C175.563 460.731 175.091 460.583 174.607 460.582V460.582Z" fill="#3F3D56"/>
<path d="M723.573 830H514.21C514 830 513.798 829.917 513.649 829.768C513.501 829.62 513.417 829.419 513.417 829.209C513.417 828.999 513.501 828.798 513.649 828.649C513.798 828.501 514 828.417 514.21 828.417H723.573C723.784 828.417 723.985 828.501 724.134 828.649C724.283 828.798 724.366 828.999 724.366 829.209C724.366 829.419 724.283 829.62 724.134 829.768C723.985 829.917 723.784 830 723.573 830Z" fill="#CCCCCC"/>
<path d="M567.327 647.023L480.666 602.515C479.359 601.842 478.374 600.68 477.926 599.284C477.478 597.889 477.604 596.373 478.277 595.07L483.638 584.712C484.313 583.411 485.479 582.429 486.88 581.983C488.282 581.537 489.803 581.663 491.111 582.333L577.773 626.841C579.08 627.513 580.065 628.675 580.513 630.071C580.961 631.467 580.835 632.982 580.162 634.285L574.801 644.643C574.469 645.289 574.011 645.863 573.454 646.331C572.897 646.8 572.253 647.154 571.558 647.372C571.009 647.548 570.436 647.638 569.859 647.638C568.978 647.638 568.11 647.426 567.327 647.023V647.023Z" fill="#4DA6BA"/>
<path d="M540.905 605.387C541.589 605.122 542.32 604.994 543.054 605.014C543.788 605.033 544.511 605.198 545.18 605.498L573.58 621.141C576.688 622.851 579.018 625.685 580.088 629.058C581.158 632.43 580.886 636.083 579.329 639.262L578.974 639.09L579.33 639.263C577.842 642.3 575.288 644.689 572.15 645.976C569.013 647.262 565.511 647.358 562.307 646.244L531.507 635.52C530.84 635.227 530.238 634.805 529.735 634.28C529.231 633.755 528.837 633.136 528.574 632.458C528.311 631.781 528.184 631.059 528.202 630.333C528.219 629.607 528.38 628.891 528.675 628.227L537.833 608.306C537.992 607.946 538.19 607.603 538.422 607.284C539.048 606.426 539.911 605.767 540.905 605.387V605.387Z" fill="#2F2E41"/>
<path d="M606.25 600.608C629.677 600.608 648.669 581.69 648.669 558.352C648.669 535.015 629.677 516.096 606.25 516.096C582.822 516.096 563.83 535.015 563.83 558.352C563.83 581.69 582.822 600.608 606.25 600.608Z" fill="#4DA6BA"/>
<path d="M601.045 821.15V724.025C601.047 722.56 601.632 721.155 602.672 720.119C603.712 719.083 605.122 718.5 606.593 718.498H618.291C619.762 718.5 621.173 719.083 622.213 720.119C623.253 721.155 623.838 722.56 623.84 724.025V821.15C623.838 822.615 623.253 824.02 622.213 825.056C621.173 826.092 619.762 826.675 618.291 826.677H606.593C605.122 826.675 603.712 826.092 602.672 825.056C601.632 824.02 601.047 822.615 601.045 821.15V821.15Z" fill="#4DA6BA"/>
<path d="M575.681 821.15V724.025C575.682 722.56 576.267 721.155 577.307 720.119C578.348 719.083 579.758 718.5 581.229 718.498H592.927C594.398 718.5 595.808 719.083 596.849 720.119C597.889 721.155 598.474 722.56 598.475 724.025V821.15C598.474 822.615 597.889 824.02 596.849 825.056C595.808 826.092 594.398 826.675 592.927 826.677H581.229C579.758 826.675 578.348 826.092 577.308 825.056C576.267 824.02 575.682 822.615 575.681 821.15V821.15Z" fill="#4DA6BA"/>
<path d="M607.142 574.014L607.186 572.435C604.237 572.353 601.637 572.169 599.684 570.747C599.13 570.321 598.675 569.781 598.349 569.164C598.023 568.548 597.835 567.868 597.796 567.172C597.762 566.747 597.826 566.319 597.985 565.923C598.143 565.527 598.391 565.172 598.71 564.887C600.007 563.796 602.094 564.149 603.615 564.843L604.926 565.443L602.411 547.133L600.84 547.347L602.98 562.922C600.913 562.317 598.998 562.577 597.687 563.681C597.183 564.119 596.788 564.667 596.532 565.282C596.276 565.897 596.167 566.563 596.212 567.227C596.258 568.163 596.509 569.076 596.948 569.905C597.386 570.733 598 571.456 598.749 572.023C601.259 573.85 604.521 573.941 607.142 574.014Z" fill="#2F2E41"/>
<path d="M593.072 548.69H584.534V550.269H593.072V548.69Z" fill="#2F2E41"/>
<path d="M620.022 548.69H611.484V550.269H620.022V548.69Z" fill="#2F2E41"/>
<path d="M646.843 740.096L632.172 644.077C631.952 642.628 632.318 641.151 633.19 639.971C634.062 638.791 635.368 638.003 636.822 637.781L648.387 636.028C649.842 635.809 651.324 636.174 652.509 637.042C653.693 637.911 654.484 639.212 654.707 640.66L669.379 736.679C669.598 738.128 669.232 739.605 668.36 740.785C667.489 741.965 666.182 742.753 664.728 742.975L653.163 744.728C652.443 744.838 651.708 744.805 651 744.632C650.293 744.458 649.626 744.148 649.039 743.717C648.452 743.287 647.956 742.746 647.579 742.125C647.203 741.503 646.952 740.814 646.843 740.096V740.096Z" fill="#4DA6BA"/>
<path d="M635.505 678.466C634.887 678.071 634.355 677.556 633.939 676.953C633.523 676.35 633.232 675.671 633.083 674.954L629.105 642.871C628.668 639.361 629.602 635.818 631.713 632.974C633.824 630.13 636.951 628.203 640.448 627.59L640.517 627.979L640.448 627.59C643.79 627.004 647.231 627.66 650.12 629.433C653.008 631.206 655.143 633.973 656.121 637.21L665.505 668.338C665.658 669.048 665.67 669.781 665.539 670.495C665.408 671.209 665.137 671.891 664.741 672.501C664.345 673.111 663.833 673.637 663.233 674.05C662.633 674.462 661.957 674.753 661.244 674.905L639.681 679.227C639.295 679.311 638.9 679.353 638.505 679.353C637.44 679.352 636.398 679.044 635.505 678.466V678.466Z" fill="#2F2E41"/>
<path d="M636.643 747.869H523.282C522.132 747.869 521.002 747.576 519.998 747.017C518.994 746.459 518.15 745.654 517.547 744.679C516.944 743.704 516.601 742.592 516.551 741.448C516.502 740.303 516.747 739.166 517.263 738.142L572.071 629.571C575.879 622.027 582.131 615.983 589.815 612.418C597.498 608.852 606.165 607.973 614.413 609.922C622.661 611.872 630.007 616.536 635.264 623.16C640.52 629.784 643.38 637.981 643.38 646.425V741.158C643.378 742.937 642.668 744.643 641.404 745.901C640.141 747.159 638.429 747.867 636.643 747.869V747.869Z" fill="#2F2E41"/>
<path d="M607.753 523.491C599.069 525.422 591.745 531.06 583.013 532.813C579.035 533.612 574.653 533.579 570.999 531.628C568.293 530.164 566.223 527.758 565.185 524.87C564.159 521.916 563.895 518.753 564.417 515.67C564.938 512.588 566.23 509.686 568.171 507.23C573.073 501.254 580.887 498.5 588.384 497.724C603.389 496.17 618.8 501.096 631.013 509.675C643.623 518.534 653.296 531.836 656.541 546.974C658.276 555.067 658.105 563.676 655.143 571.468C652.295 578.925 646.688 585.012 639.474 588.479C637.752 589.307 635.957 589.972 634.111 590.468C633.817 590.56 633.57 590.762 633.422 591.032C633.275 591.302 633.238 591.618 633.32 591.914C633.402 592.21 633.596 592.463 633.862 592.619C634.127 592.776 634.444 592.823 634.744 592.752C642.855 590.546 649.852 585.413 654.374 578.352C659.02 570.95 660.578 561.888 659.863 553.276C658.478 536.617 649.282 521.306 636.426 510.824C624.076 500.754 608.099 494.627 592.035 495.113C583.978 495.358 575.615 497.395 569.351 502.683C566.651 504.957 564.561 507.864 563.269 511.142C561.976 514.421 561.522 517.967 561.946 521.464C562.306 524.735 563.61 527.832 565.7 530.381C568.255 533.257 571.797 535.079 575.63 535.49C585.129 536.721 593.365 531.358 601.759 527.91C603.902 527.011 606.119 526.296 608.385 525.775C609.878 525.443 609.246 523.158 607.753 523.491V523.491Z" fill="#2F2E41"/>
<path d="M631.611 506.751C628.201 494.033 637.101 480.797 649.194 476.826C656.134 474.673 663.578 474.756 670.468 477.062C677.185 479.326 683.216 483.249 687.999 488.464C698.6 499.698 703.295 514.86 705.493 529.809C707.762 545.244 706.481 562.149 714.41 576.175C717.697 581.99 722.576 587.082 728.881 589.586C734.762 591.922 741.808 591.933 747.442 588.897C748.799 588.157 750.052 587.245 751.172 586.183C752.287 585.135 750.604 583.462 749.491 584.508C744.772 588.943 737.74 589.78 731.676 588.039C725.061 586.141 719.97 581.077 716.615 575.246C712.735 568.503 711.12 560.795 710.239 553.147C709.277 544.799 708.906 536.406 707.622 528.091C705.305 513.095 700.299 498.042 689.68 486.789C684.823 481.533 678.768 477.52 672.025 475.087C665.083 472.611 657.562 472.233 650.405 474C643.9 475.678 638.165 479.52 634.151 484.888C630.25 489.983 628.266 496.279 628.545 502.681C628.647 504.269 628.906 505.843 629.318 507.381C629.411 507.674 629.614 507.92 629.884 508.067C630.155 508.214 630.473 508.25 630.77 508.169C631.068 508.087 631.321 507.894 631.478 507.629C631.635 507.365 631.683 507.05 631.611 506.751L631.611 506.751Z" fill="#2F2E41"/>
</g>
<defs>
<clipPath id="clip0_532_537">
<rect width="585" height="470" fill="white" transform="translate(143 360)"/>
</clipPath>
</defs>
</svg>
