<svg width="999" height="707" viewBox="0 0 999 707" fill="none" xmlns="http://www.w3.org/2000/svg">
<path d="M77.3755 749.023C24.86 706.686 -7.03868 639.805 1.32677 574.696C9.69223 509.588 61.5052 449.733 128.714 435.906C195.923 422.08 272.536 460.353 292.95 522.991C304.184 402.228 317.13 276.404 384.426 173.562C445.361 80.4418 550.902 13.8107 665.284 1.89018C779.666 -10.0304 900.096 34.9916 971.432 121.126C1042.77 207.26 1060.23 332.482 1010.27 431.372C973.467 504.22 905.659 558.435 834.613 602.541C607.952 743.256 326.779 790.799 59.2389 753.234L77.3755 749.023Z" fill="#4DA6BA" fill-opacity="0.38"/>
<path d="M857.851 37.5635C763.351 110.949 676.658 193.025 599.025 282.604C521.379 372.092 453.02 468.548 394.909 570.62C362.427 627.877 333.248 686.782 307.502 747.073C302.253 759.337 323.141 764.676 328.332 752.548C373.935 646.256 430.354 544.482 496.781 448.684C562.885 353.233 638.544 264.121 722.697 182.599C770.294 136.512 820.512 92.9557 873.126 52.1265C883.91 43.7541 868.546 29.2601 857.851 37.5635H857.851Z" fill="white" fill-opacity="0.38"/>
<g clip-path="url(#clip0_532_536)" filter="url(#filter0_d_532_536)">
<path d="M589.336 335.04L778.895 334.699C779.233 334.699 779.558 334.563 779.798 334.322C780.038 334.081 780.172 333.753 780.172 333.412C780.172 333.071 780.038 332.744 779.798 332.502C779.558 332.261 779.233 332.125 778.895 332.125L589.336 332.466C588.997 332.466 588.672 332.602 588.433 332.843C588.193 333.084 588.059 333.412 588.059 333.753C588.059 334.094 588.193 334.421 588.433 334.663C588.672 334.904 588.997 335.04 589.336 335.04V335.04Z" fill="#3F3D56"/>
<path d="M586.505 353.053C596.383 353.053 604.391 344.988 604.391 335.04C604.391 325.091 596.383 317.026 586.505 317.026C576.627 317.026 568.619 325.091 568.619 335.04C568.619 344.988 576.627 353.053 586.505 353.053Z" fill="#3F3D56"/>
<path d="M770.399 334.948C746.15 334.948 722.447 327.706 702.285 314.139C682.123 300.571 666.409 281.287 657.129 258.725C647.85 236.163 645.422 211.337 650.153 187.385C654.883 163.434 666.56 141.433 683.706 124.165C700.852 106.896 722.698 95.1367 746.48 90.3725C770.263 85.6082 794.914 88.0534 817.317 97.3988C839.719 106.744 858.867 122.57 872.339 142.875C885.81 163.181 893.001 187.053 893.001 211.474C892.964 244.21 880.035 275.595 857.051 298.742C834.067 321.89 802.904 334.911 770.399 334.948V334.948ZM770.399 96.5154C747.823 96.5154 725.754 103.258 706.982 115.889C688.211 128.521 673.581 146.475 664.941 167.481C656.302 188.487 654.041 211.601 658.446 233.901C662.85 256.201 673.721 276.685 689.685 292.762C705.649 308.839 725.988 319.788 748.13 324.224C770.272 328.659 793.223 326.383 814.081 317.682C834.938 308.981 852.766 294.246 865.308 275.341C877.851 256.437 884.545 234.211 884.545 211.474C884.511 180.996 872.474 151.776 851.075 130.224C829.676 108.673 800.662 96.55 770.399 96.5154V96.5154Z" fill="#3F3D56"/>
<path d="M823.299 260.948C818.811 260.951 814.424 259.613 810.691 257.105C806.958 254.597 804.048 251.03 802.328 246.856C800.608 242.682 800.155 238.087 801.028 233.654C801.9 229.221 804.059 225.148 807.23 221.95C810.401 218.752 814.442 216.573 818.843 215.689C823.243 214.804 827.805 215.253 831.953 216.98C836.1 218.707 839.645 221.633 842.141 225.389C844.636 229.145 845.97 233.562 845.973 238.081C845.974 244.141 843.587 249.953 839.335 254.241C835.084 258.529 829.316 260.941 823.299 260.948ZM770.397 260.948C764.386 260.941 758.623 258.533 754.372 254.252C750.122 249.971 747.731 244.167 747.724 238.113V184.835C747.724 178.779 750.113 172.971 754.365 168.688C758.617 164.406 764.384 162 770.398 162C776.411 162 782.178 164.406 786.431 168.688C790.683 172.971 793.072 178.779 793.072 184.835V238.113C793.065 244.167 790.674 249.971 786.423 254.252C782.172 258.533 776.409 260.941 770.397 260.948ZM717.511 260.948C711.496 260.941 705.729 258.531 701.475 254.247C697.222 249.963 694.829 244.155 694.822 238.096V216.81C694.822 210.75 697.213 204.938 701.468 200.652C705.723 196.367 711.494 193.959 717.512 193.959C723.529 193.959 729.301 196.367 733.556 200.652C737.811 204.938 740.201 210.75 740.201 216.81V238.096C740.195 244.155 737.802 249.963 733.548 254.247C729.294 258.531 723.527 260.941 717.511 260.948Z" fill="#FF6584"/>
<path d="M401.036 513.882V515.953C401.039 519.384 402.394 522.675 404.803 525.101C407.213 527.528 410.48 528.892 413.887 528.895H522.866C526.274 528.894 529.542 527.53 531.952 525.103C534.362 522.676 535.716 519.385 535.717 515.953V513.882C535.724 510.853 534.668 507.92 532.735 505.599C532.092 504.828 531.365 504.133 530.566 503.528H474.041C473.36 503.528 472.706 503.255 472.224 502.769C471.742 502.284 471.471 501.626 471.471 500.939H413.887C410.48 500.944 407.214 502.309 404.805 504.735C402.396 507.162 401.041 510.451 401.036 513.882Z" fill="#3F3D56"/>
<path d="M461.186 623.64H474.551V528.382H461.186V623.64Z" fill="#3F3D56"/>
<path d="M423.146 623.167C423.146 624.621 443.399 623.729 468.382 623.729C493.365 623.729 513.618 624.621 513.618 623.167C513.618 621.712 493.365 610.179 468.382 610.179C443.399 610.179 423.146 621.712 423.146 623.167Z" fill="#3F3D56"/>
<path d="M422.009 511.697L467.616 519.028L520.604 527.549L538.976 530.5C540.74 530.781 542.542 530.345 543.988 529.289C545.433 528.233 546.404 526.643 546.687 524.868L547.52 519.629L548.291 514.752L548.928 510.734C549.072 509.836 549.033 508.918 548.814 508.035C548.595 507.152 548.2 506.323 547.653 505.599C547.007 504.708 546.148 503.995 545.155 503.528H474.041C473.36 503.528 472.706 503.255 472.224 502.769C471.742 502.284 471.471 501.626 471.471 500.939V498.899C471.471 498.213 471.742 497.555 472.224 497.069C472.706 496.584 473.36 496.311 474.041 496.311H501.985L489.103 494.24L449.5 487.872L426.379 484.155C424.611 483.873 422.804 484.309 421.355 485.367C419.905 486.425 418.932 488.018 418.647 489.798L416.406 503.921C416.132 505.7 416.568 507.515 417.617 508.972C418.667 510.428 420.246 511.408 422.009 511.697Z" fill="#4DA6BA"/>
<path d="M520.604 509.731V588.64C520.607 590.437 521.317 592.161 522.58 593.432C523.842 594.704 525.553 595.419 527.338 595.422H541.557C543.342 595.419 545.054 594.704 546.316 593.432C547.578 592.161 548.289 590.438 548.291 588.64V509.731C548.294 508.234 547.798 506.779 546.883 505.6C546.205 504.693 545.305 503.979 544.271 503.529H524.614C523.585 503.982 522.689 504.696 522.013 505.6C521.099 506.78 520.604 508.234 520.604 509.731V509.731Z" fill="#4DA6BA"/>
<path d="M477.752 376.173C477.825 376.876 478.005 377.564 478.287 378.212C478.715 379.202 479.375 380.072 480.21 380.749L480.241 380.77L520.809 413.913L521.405 414.39L529.805 421.255L532.344 423.325H576.275L573.746 421.255L539.027 392.884L515.761 373.874L497.657 359.088C496.597 358.219 495.298 357.698 493.935 357.597C493.929 357.591 493.922 357.588 493.914 357.587C493.51 357.558 493.104 357.564 492.701 357.608C492.098 357.669 491.506 357.815 490.943 358.042C490.558 358.183 490.192 358.371 489.853 358.602C489.214 358.994 488.647 359.495 488.177 360.082L479.356 371.027L479.223 371.203C478.663 371.892 478.246 372.686 477.993 373.539C477.741 374.392 477.659 375.287 477.752 376.173V376.173Z" fill="#4DA6BA"/>
<path d="M480.242 380.77C481.006 382.695 482.118 384.461 483.521 385.978L510.53 415.197C511.182 415.801 511.947 416.269 512.78 416.575C513.612 416.88 514.497 417.017 515.382 416.978C516.267 416.939 517.136 416.723 517.939 416.345C518.742 415.967 519.462 415.432 520.06 414.773L520.811 413.914L521.139 413.541L532.808 400.36L537.825 394.686C538.159 394.336 538.449 393.947 538.689 393.526C538.812 393.319 538.925 393.102 539.028 392.884C539.449 391.917 539.642 390.864 539.594 389.809C539.559 388.911 539.346 388.03 538.966 387.217C538.587 386.404 538.048 385.676 537.383 385.077L506.067 360.973C502.612 358.305 498.261 357.094 493.936 357.597C493.931 357.592 493.923 357.588 493.915 357.587C492.955 357.708 492.005 357.909 491.077 358.188C490.666 358.302 490.266 358.446 489.854 358.602C487.199 359.608 484.845 361.284 483.017 363.468C481.029 365.821 479.719 368.678 479.23 371.729C478.74 374.779 479.09 377.906 480.242 380.77V380.77Z" fill="#2F2E41"/>
<path d="M467.417 333.533C495.877 333.533 518.948 310.298 518.948 281.636C518.948 252.974 495.877 229.739 467.417 229.739C438.958 229.739 415.887 252.974 415.887 281.636C415.887 310.298 438.958 333.533 467.417 333.533Z" fill="#4DA6BA"/>
<path d="M453.695 504.543L472.807 507.608L473.24 507.68L502.293 512.35L520.604 515.301L547.52 519.629L548.291 519.753L552.29 520.395L570.662 523.346C572.426 523.626 574.228 523.191 575.673 522.135C577.119 521.079 578.09 519.489 578.373 517.714L579.977 507.608L580.614 503.59C580.614 503.57 580.624 503.549 580.624 503.528H474.041C473.36 503.528 472.706 503.255 472.224 502.77C471.742 502.284 471.471 501.626 471.471 500.94V498.9C471.471 498.214 471.742 497.555 472.224 497.07C472.706 496.585 473.36 496.312 474.041 496.312H507.722V484.994L505.665 484.663L495.508 483.027L458.055 477.011C456.289 476.729 454.485 477.163 453.037 478.219C451.589 479.275 450.617 480.867 450.333 482.644L449.5 487.873L448.092 496.778C447.816 498.555 448.251 500.37 449.301 501.826C450.351 503.281 451.931 504.258 453.695 504.543V504.543Z" fill="#4DA6BA"/>
<path d="M397.283 458.695C397.283 501.002 401.55 526.307 467.349 519.059C467.441 519.049 467.523 519.039 467.616 519.028C479.351 517.861 490.958 515.626 502.293 512.35C508.184 510.618 513.91 508.358 519.401 505.599C520.696 504.937 521.94 504.243 523.164 503.528H474.041C473.36 503.528 472.706 503.255 472.224 502.77C471.742 502.284 471.471 501.626 471.471 500.94V498.9C471.471 498.214 471.742 497.555 472.224 497.07C472.706 496.585 473.36 496.312 474.041 496.311H507.722V430.915C507.724 428.903 508.519 426.974 509.932 425.551C511.345 424.129 513.26 423.328 515.258 423.325H542.657C542.42 422.642 542.184 421.948 541.927 421.254C539.356 414.091 536.31 407.111 532.808 400.36C528.01 390.985 522.3 382.113 515.762 373.874C511.209 368.133 506.098 362.864 500.505 358.146C490.193 349.573 478.966 344.271 467.574 344.271C425.566 344.271 397.283 416.388 397.283 458.695Z" fill="#2F2E41"/>
<path d="M466.335 300.871L466.281 298.932C469.864 298.831 473.022 298.605 475.395 296.859C476.068 296.336 476.621 295.672 477.017 294.915C477.413 294.157 477.641 293.322 477.688 292.468C477.73 291.945 477.651 291.42 477.459 290.934C477.266 290.447 476.965 290.011 476.578 289.661C475.003 288.321 472.468 288.755 470.62 289.608L469.027 290.344L472.082 267.856L473.99 268.119L471.391 287.248C473.902 286.505 476.228 286.825 477.821 288.18C478.433 288.718 478.913 289.391 479.224 290.146C479.534 290.902 479.668 291.72 479.612 292.536C479.556 293.684 479.251 294.807 478.719 295.824C478.187 296.841 477.44 297.729 476.531 298.425C473.482 300.669 469.519 300.781 466.335 300.871Z" fill="#2F2E41"/>
<path d="M493.796 269.769H483.425V271.708H493.796V269.769Z" fill="#2F2E41"/>
<path d="M461.059 269.769H450.688V271.708H461.059V269.769Z" fill="#2F2E41"/>
<path d="M426.291 267.377C430.299 261.301 437.351 258.726 444.305 258.1C452.132 257.394 459.695 258.914 467.337 260.391C475.747 262.017 484.648 263.537 493.122 261.482C496.871 260.609 500.374 258.89 503.368 256.455C506.361 254.019 508.766 250.932 510.402 247.424C513.505 240.58 514.173 232.87 512.295 225.588C510.309 217.844 505.38 211.03 499.405 205.883C487.208 195.379 470.704 190.658 454.83 191.102C439.016 191.513 423.731 196.926 411.141 206.573C398.531 216.569 389.657 230.574 385.968 246.303C382.11 261.903 383.367 278.341 389.55 293.162C393.024 301.278 398.048 308.595 401.924 316.506C405.534 323.872 408.314 332.436 406.068 340.652C404.097 347.861 398.311 354.266 391.048 356.224C387.743 357.097 384.246 356.866 381.083 355.566C377.92 354.265 375.262 351.965 373.508 349.012C369.877 343.246 369.79 335.694 375.242 331.038C376.616 329.845 378.218 328.945 379.948 328.395C381.679 327.844 383.502 327.654 385.308 327.835C387.114 328.017 388.864 328.566 390.452 329.45C392.04 330.334 393.434 331.535 394.547 332.978C396.759 335.871 397.749 339.526 397.302 343.149C397.034 344.98 399.817 345.771 400.088 343.922C400.738 340.09 400.017 336.15 398.052 332.804C396.087 329.458 393.006 326.922 389.359 325.65C385.711 324.378 381.733 324.451 378.134 325.857C374.535 327.263 371.549 329.91 369.707 333.326C366.419 339.552 368.193 347.06 372.367 352.382C374.52 355.216 377.438 357.366 380.773 358.573C384.108 359.781 387.717 359.996 391.169 359.191C398.766 357.424 404.981 351.344 407.903 344.198C411.157 336.243 409.666 327.365 406.494 319.646C403.066 311.302 397.974 303.818 393.948 295.777C390.302 288.51 387.982 280.643 387.099 272.55C385.33 256.298 388.992 239.917 397.506 225.997C406.184 212.294 419.43 202.156 434.863 197.404C450.081 192.593 466.865 192.74 481.766 198.653C496.443 204.477 510.616 217.17 510.445 234.217C510.373 241.499 507.689 248.925 502.15 253.782C495.532 259.586 486.316 260.082 477.996 259.177C469.623 258.265 461.492 255.802 453.083 255.174C445.768 254.628 437.877 255.196 431.347 258.855C428.306 260.563 425.716 262.983 423.797 265.909C422.766 267.473 425.266 268.931 426.291 267.377V267.377Z" fill="#2F2E41"/>
<path d="M434.49 394.396C434.572 394.584 434.665 394.767 434.767 394.944C434.871 395.13 434.984 395.31 435.107 395.483L457.643 428.15L459.391 430.687L477.773 457.318L495.508 483.027L502.684 493.443C502.877 493.727 503.094 493.994 503.332 494.24C504.441 495.416 505.934 496.151 507.537 496.311H507.721V451.882L505.665 448.9L482.605 415.477L457.838 379.579C456.818 378.102 455.258 377.093 453.501 376.773C451.743 376.453 449.931 376.847 448.462 377.87L440.864 383.182L436.782 386.04C435.492 386.944 434.556 388.275 434.138 389.801C433.719 391.327 433.844 392.952 434.49 394.396V394.396Z" fill="#4DA6BA"/>
<path d="M430.964 393.599L431.982 395.659L431.992 395.67L432.27 396.218L448.791 429.248C449.722 430.784 451.22 431.886 452.956 432.313C454.692 432.74 456.525 432.457 458.055 431.526L459.124 430.853L459.391 430.687L480.693 417.227C481.454 416.763 482.115 416.152 482.64 415.43C483.165 414.707 483.542 413.887 483.75 413.017C483.959 412.147 483.994 411.244 483.854 410.36C483.714 409.476 483.401 408.628 482.934 407.867L459.535 375.914C457.241 372.783 453.947 370.542 450.206 369.569C446.465 368.596 442.506 368.95 438.994 370.571C438.201 370.931 437.438 371.353 436.711 371.834C433.272 374.123 430.787 377.604 429.727 381.616C428.668 385.628 429.108 389.892 430.964 393.599V393.599Z" fill="#2F2E41"/>
<path d="M552.291 503.529V581.485C552.294 583.283 553.004 585.006 554.266 586.278C555.529 587.549 557.24 588.264 559.025 588.267H573.244C575.029 588.264 576.741 587.549 578.003 586.278C579.265 585.006 579.975 583.283 579.978 581.485V503.529H552.291Z" fill="#4DA6BA"/>
<path d="M469.416 498.9V500.94C469.418 502.018 469.789 503.063 470.467 503.897C471.145 504.731 472.089 505.303 473.138 505.517C473.281 505.537 473.425 505.569 473.57 505.579C473.724 505.589 473.878 505.6 474.042 505.6H632.534C635.079 505.599 637.52 504.581 639.32 502.77C641.12 500.959 642.133 498.502 642.137 495.939V430.915C642.133 428.352 641.12 425.896 639.32 424.084C637.52 422.273 635.079 421.255 632.534 421.255H515.259C512.716 421.258 510.277 422.276 508.479 424.087C506.681 425.899 505.669 428.354 505.667 430.915V494.241H474.042C472.815 494.241 471.639 494.732 470.771 495.606C469.904 496.48 469.416 497.665 469.416 498.9Z" fill="white"/>
<path d="M469.416 498.9V500.94C469.418 502.018 469.789 503.063 470.467 503.897C471.145 504.731 472.089 505.303 473.138 505.517C473.281 505.537 473.425 505.569 473.57 505.579C473.724 505.589 473.878 505.6 474.042 505.6H632.534C635.079 505.599 637.52 504.581 639.32 502.77C641.12 500.959 642.133 498.502 642.137 495.939V430.915C642.133 428.352 641.12 425.896 639.32 424.084C637.52 422.273 635.079 421.255 632.534 421.255H515.259C512.716 421.258 510.277 422.276 508.479 424.087C506.681 425.899 505.669 428.354 505.667 430.915V494.241H474.042C472.815 494.241 471.639 494.732 470.771 495.606C469.904 496.48 469.416 497.665 469.416 498.9ZM471.472 500.94V498.9C471.472 498.214 471.743 497.556 472.225 497.07C472.707 496.585 473.361 496.312 474.042 496.312H507.723V430.915C507.726 428.903 508.521 426.975 509.933 425.552C511.346 424.129 513.261 423.329 515.259 423.326H632.534C634.534 423.327 636.451 424.126 637.866 425.549C639.281 426.972 640.077 428.902 640.081 430.915V495.939C640.077 497.953 639.281 499.883 637.866 501.306C636.451 502.728 634.534 503.528 632.534 503.529H474.042C473.361 503.529 472.707 503.256 472.225 502.77C471.743 502.285 471.472 501.627 471.472 500.94V500.94Z" fill="#3F3D56"/>
<path d="M573.9 471.391C578.267 471.391 581.807 467.826 581.807 463.428C581.807 459.031 578.267 455.466 573.9 455.466C569.534 455.466 565.994 459.031 565.994 463.428C565.994 467.826 569.534 471.391 573.9 471.391Z" fill="#FF6584"/>
<path d="M507.752 495.338H505.696V504.657H507.752V495.338Z" fill="#3F3D56"/>
<path d="M825.521 488.477C826.944 488.478 828.308 489.018 829.315 489.977C830.321 490.937 830.887 492.238 830.889 493.595V598.542C830.887 599.899 830.321 601.2 829.315 602.16C828.308 603.119 826.944 603.659 825.521 603.661H812.316C810.893 603.659 809.529 603.119 808.523 602.16C807.516 601.2 806.95 599.899 806.949 598.542V493.595C806.95 492.238 807.516 490.937 808.523 489.977C809.529 489.018 810.893 488.478 812.316 488.477H825.521Z" fill="#4DA6BA"/>
<path d="M784.41 604.514H797.615C799.275 604.513 800.867 603.883 802.041 602.763C803.215 601.644 803.875 600.126 803.877 598.542V493.596C803.875 492.013 803.215 490.495 802.041 489.375C800.867 488.256 799.275 487.626 797.615 487.624H784.41C782.75 487.626 781.158 488.256 779.984 489.375C778.81 490.495 778.15 492.013 778.148 493.596V598.542C778.15 600.126 778.81 601.644 779.984 602.763C781.158 603.883 782.75 604.513 784.41 604.514V604.514Z" fill="#4DA6BA"/>
<path d="M762.792 501.732C762.792 501.732 757.804 544.511 808.167 543.058C858.531 541.605 838.936 499.57 838.936 499.57C838.936 499.57 828.411 491.683 801.806 499.311C775.202 506.94 762.792 501.732 762.792 501.732Z" fill="#CCCCCC"/>
<path d="M784.435 428.928C787.201 428.933 789.895 428.087 792.117 426.516C794.34 424.945 795.971 422.733 796.771 420.207C797.57 417.682 797.494 414.978 796.554 412.497C795.615 410.015 793.861 407.889 791.554 406.434L705.287 351.988C704.601 351.555 703.832 351.255 703.025 351.105C702.218 350.956 701.388 350.959 700.582 351.115C699.776 351.272 699.01 351.578 698.328 352.017C697.646 352.455 697.062 353.018 696.608 353.672L689.321 364.172C688.406 365.493 688.078 367.106 688.409 368.658C688.74 370.209 689.703 371.572 691.086 372.448L777.354 426.894C779.453 428.222 781.916 428.93 784.435 428.928V428.928Z" fill="#4DA6BA"/>
<path d="M800.098 378.528C774.899 378.528 754.471 359.048 754.471 335.018C754.471 310.989 774.899 291.509 800.098 291.509C825.296 291.509 845.724 310.989 845.724 335.018C845.724 359.048 825.296 378.528 800.098 378.528Z" fill="#4DA6BA"/>
<path d="M800.064 353.283C797.107 353.205 793.426 353.107 790.59 351.131C789.746 350.519 789.052 349.738 788.558 348.843C788.063 347.948 787.78 346.961 787.727 345.95C787.676 345.232 787.8 344.513 788.088 343.848C788.377 343.183 788.823 342.591 789.392 342.117C790.873 340.924 793.036 340.644 795.366 341.297L792.951 324.469L794.724 324.237L797.563 344.021L796.083 343.373C794.367 342.623 792.011 342.241 790.547 343.42C790.187 343.729 789.907 344.112 789.728 344.54C789.549 344.969 789.477 345.431 789.515 345.89C789.559 346.642 789.772 347.377 790.139 348.043C790.507 348.71 791.021 349.293 791.646 349.753C793.853 351.29 796.787 351.489 800.114 351.577L800.064 353.283Z" fill="#2F2E41"/>
<path d="M774.548 325.92H784.185V327.626H774.548V325.92Z" fill="#2F2E41"/>
<path d="M804.965 325.92H814.602V327.626H804.965V325.92Z" fill="#2F2E41"/>
<path d="M846.186 510.745C846.186 510.745 850.125 383.019 794.973 391.784C739.822 400.55 762.802 523.893 762.802 523.893C762.802 523.893 774.62 546.433 803.509 521.388C832.398 496.344 846.186 510.745 846.186 510.745Z" fill="#2F2E41"/>
<path d="M825.833 298.268C816.955 292.52 805.751 296.424 797.124 300.527C788.747 304.51 779.306 309.58 769.827 305.742C766.125 304.243 763.116 301.312 762.593 297.39C761.97 292.718 764.933 288.344 768.228 285.167C771.809 281.899 775.982 279.277 780.543 277.427C785.015 275.509 789.725 274.143 794.56 273.363C804.137 271.785 813.971 272.412 823.243 275.192C832.514 277.971 840.955 282.823 847.863 289.343C854.545 295.842 859.708 303.617 863.012 312.157C866.315 320.696 867.685 329.806 867.031 338.886C866.277 348.565 863.035 358.434 856.532 366.032C850.43 373.161 841.293 378.173 831.542 378.592C829.152 378.698 826.759 378.513 824.418 378.04C822.734 377.697 822.014 380.164 823.705 380.508C833.861 382.573 844.383 379.504 852.438 373.462C860.918 367.102 866.12 357.473 868.402 347.551C872.767 328.565 867.298 308.132 854.766 292.932C848.578 285.361 840.561 279.329 831.4 275.35C821.939 271.322 811.604 269.513 801.259 270.076C790.943 270.57 780.934 273.594 772.202 278.855C764.392 283.669 755.589 293.873 761.959 302.901C764.341 306.277 768.295 308.334 772.401 309.179C777.112 310.053 781.986 309.648 786.468 308.01C796.672 304.574 806.11 296.896 817.532 298.059C820.022 298.306 822.408 299.137 824.479 300.478C825.911 301.405 827.256 299.189 825.833 298.268H825.833Z" fill="#2F2E41"/>
<path d="M701.947 494.329C702.828 494.329 703.699 494.151 704.502 493.805H704.502L798.889 453.427C800.431 452.768 801.823 451.826 802.983 450.654C804.144 449.483 805.051 448.105 805.653 446.599C806.255 445.092 806.539 443.488 806.491 441.877C806.442 440.266 806.061 438.68 805.369 437.209C804.677 435.739 803.689 434.413 802.459 433.307C801.23 432.201 799.784 431.337 798.204 430.764C796.624 430.191 794.941 429.921 793.252 429.968C791.563 430.016 789.9 430.381 788.358 431.041L693.971 471.419C693.22 471.74 692.543 472.199 691.979 472.769C691.415 473.34 690.974 474.011 690.681 474.744C690.388 475.476 690.25 476.257 690.274 477.041C690.298 477.825 690.483 478.597 690.82 479.312L696.224 490.801C696.721 491.852 697.525 492.744 698.54 493.37C699.555 493.995 700.738 494.328 701.947 494.329V494.329Z" fill="#4DA6BA"/>
</g>
<defs>
<filter id="filter0_d_532_536" x="364" y="88" width="533" height="544" filterUnits="userSpaceOnUse" color-interpolation-filters="sRGB">
<feFlood flood-opacity="0" result="BackgroundImageFix"/>
<feColorMatrix in="SourceAlpha" type="matrix" values="0 0 0 0 0 0 0 0 0 0 0 0 0 0 0 0 0 0 127 0" result="hardAlpha"/>
<feOffset dy="4"/>
<feGaussianBlur stdDeviation="2"/>
<feColorMatrix type="matrix" values="0 0 0 0 0 0 0 0 0 0 0 0 0 0 0 0 0 0 0.25 0"/>
<feBlend mode="normal" in2="BackgroundImageFix" result="effect1_dropShadow_532_536"/>
<feBlend mode="normal" in="SourceGraphic" in2="effect1_dropShadow_532_536" result="shape"/>
</filter>
<clipPath id="clip0_532_536">
<rect width="525" height="536" fill="white" transform="translate(368 88)"/>
</clipPath>
</defs>
</svg>
