<svg width="1272" height="713" viewBox="0 0 1272 713" fill="none" xmlns="http://www.w3.org/2000/svg">
<path d="M857.025 697.576C903.839 658.147 932.275 595.86 924.818 535.223C917.36 474.586 871.172 418.843 811.259 405.966C751.347 393.09 683.05 428.734 664.853 487.07C654.838 374.601 643.298 257.419 583.307 161.641C528.987 74.9166 434.904 12.8621 332.939 1.76035C230.974 -9.34142 123.618 32.5882 60.0265 112.806C-3.56524 193.025 -19.1355 309.646 25.4025 401.743C58.2122 469.588 118.659 520.079 181.992 561.156C384.047 692.205 634.696 736.483 873.192 701.498L857.025 697.576Z" fill="#4DA6BA" fill-opacity="0.38"/>
<path d="M161.849 33.3241C245.884 102.017 322.977 178.845 392.014 262.697C461.061 346.462 521.85 436.751 573.526 532.296C602.411 585.893 628.359 641.032 651.254 697.467C655.922 708.947 637.347 713.945 632.731 702.592C592.178 603.097 542.006 507.83 482.935 418.157C424.152 328.81 356.87 245.395 282.036 169.086C239.71 125.946 195.053 85.1745 148.266 46.956C138.676 39.1189 152.338 25.5517 161.849 33.3241H161.849Z" fill="white" fill-opacity="0.38"/>
<path d="M95.2562 690.038C95.6253 690.038 95.9794 689.891 96.2404 689.63C96.5014 689.369 96.6479 689.014 96.6479 688.645V663.576C96.6479 663.206 96.5014 662.852 96.2404 662.591C95.9794 662.33 95.6253 662.183 95.2562 662.183C94.8871 662.183 94.5331 662.33 94.2721 662.591C94.0111 662.852 93.8644 663.206 93.8644 663.576V688.645C93.8644 689.014 94.0112 689.369 94.2722 689.63C94.5332 689.891 94.8871 690.038 95.2562 690.038Z" fill="#4DA6BA"/>
<path d="M95.2564 656.612C91.4131 656.612 88.2975 653.494 88.2975 649.648C88.2975 645.803 91.4131 642.685 95.2564 642.685C99.0997 642.685 102.215 645.803 102.215 649.648C102.215 653.494 99.0997 656.612 95.2564 656.612Z" fill="#4DA6BA"/>
<path d="M96.6479 678.896C96.6479 678.896 87.9493 663.228 75.7713 668.45L96.6479 678.896Z" fill="#4DA6BA"/>
<path d="M471.038 690.038C471.407 690.038 471.761 689.891 472.022 689.63C472.283 689.369 472.43 689.014 472.43 688.645V663.576C472.43 663.206 472.283 662.852 472.022 662.591C471.761 662.33 471.407 662.183 471.038 662.183C470.669 662.183 470.315 662.33 470.054 662.591C469.793 662.852 469.646 663.206 469.646 663.576V688.645C469.646 689.014 469.793 689.369 470.054 689.63C470.315 689.891 470.669 690.038 471.038 690.038Z" fill="#4DA6BA"/>
<path d="M471.038 656.612C467.195 656.612 464.079 653.494 464.079 649.648C464.079 645.803 467.195 642.685 471.038 642.685C474.881 642.685 477.997 645.803 477.997 649.648C477.997 653.494 474.881 656.612 471.038 656.612Z" fill="#4DA6BA"/>
<path d="M472.43 678.896C472.43 678.896 463.731 663.228 451.553 668.45L472.43 678.896Z" fill="#4DA6BA"/>
<path d="M402.842 690.038C403.211 690.038 403.565 689.891 403.826 689.63C404.087 689.369 404.233 689.014 404.233 688.645V663.576C404.233 663.206 404.087 662.852 403.826 662.591C403.565 662.33 403.211 662.183 402.842 662.183C402.472 662.183 402.119 662.33 401.858 662.591C401.596 662.852 401.45 663.206 401.45 663.576V688.645C401.45 689.014 401.597 689.369 401.858 689.63C402.119 689.891 402.473 690.038 402.842 690.038Z" fill="#E6E6E6"/>
<path d="M402.84 656.612C398.997 656.612 395.881 653.494 395.881 649.648C395.881 645.803 398.997 642.685 402.84 642.685C406.683 642.685 409.799 645.803 409.799 649.648C409.799 653.494 406.683 656.612 402.84 656.612Z" fill="#E6E6E6"/>
<path d="M404.233 678.896C404.233 678.896 395.535 663.228 383.357 668.45L404.233 678.896Z" fill="#E6E6E6"/>
<path d="M250.918 684.896C258.355 678.621 262.873 668.708 261.688 659.057C260.504 649.407 253.165 640.535 243.646 638.486C234.128 636.436 223.277 642.109 220.386 651.394C218.794 633.494 216.961 614.844 207.43 599.601C198.799 585.798 183.852 575.922 167.652 574.155C151.452 572.388 134.395 579.062 124.292 591.828C114.188 604.595 111.715 623.156 118.791 637.814C124.004 648.611 133.607 656.647 143.67 663.185C175.772 684.042 215.594 691.089 253.486 685.521L250.918 684.896Z" fill="#4DA6BA" fill-opacity="0.38"/>
<path d="M140.379 579.442C153.763 590.319 166.041 602.484 177.037 615.762C188.034 629.026 197.715 643.323 205.946 658.452C210.546 666.939 214.679 675.67 218.325 684.606C219.068 686.424 216.11 687.216 215.375 685.418C208.916 669.663 200.925 654.578 191.517 640.379C182.155 626.231 171.439 613.022 159.521 600.939C152.78 594.108 145.667 587.652 138.215 581.6C136.688 580.359 138.864 578.211 140.379 579.442H140.379Z" fill="white"/>
<path d="M433.16 449.365C445.779 438.717 453.444 421.896 451.434 405.521C449.424 389.145 436.974 374.091 420.824 370.614C404.675 367.136 386.266 376.762 381.361 392.516C378.661 362.143 375.55 330.498 359.38 304.632C344.738 281.211 319.378 264.453 291.893 261.455C264.408 258.457 235.471 269.78 218.33 291.444C201.188 313.107 196.991 344.602 208.997 369.473C217.841 387.795 234.134 401.431 251.205 412.524C305.669 447.915 373.232 459.872 437.518 450.425L433.16 449.365Z" fill="#F2F2F2"/>
<path d="M245.906 270.517C268.512 288.942 289.251 309.549 307.823 332.04C326.398 354.507 342.751 378.725 356.653 404.352C364.423 418.728 371.404 433.517 377.563 448.654C378.818 451.733 373.822 453.074 372.58 450.029C361.67 423.342 348.174 397.79 332.283 373.737C316.469 349.772 298.369 327.399 278.238 306.931C266.851 295.36 254.838 284.424 242.252 274.173C239.672 272.071 243.347 268.432 245.906 270.517H245.906Z" fill="white"/>
<path d="M282.181 568.253C280.78 568.255 279.437 568.811 278.446 569.801C277.456 570.79 276.899 572.131 276.897 573.531V681.724C276.899 683.123 277.456 684.464 278.446 685.454C279.437 686.443 280.78 687 282.181 687.001H295.179C296.58 687 297.923 686.443 298.914 685.454C299.904 684.464 300.461 683.123 300.463 681.724V573.531C300.461 572.131 299.904 570.79 298.914 569.801C297.923 568.811 296.58 568.255 295.179 568.253H282.181Z" fill="#4DA6BA"/>
<path d="M322.649 687.881H309.651C308.016 687.879 306.45 687.229 305.294 686.075C304.138 684.921 303.488 683.356 303.486 681.724V573.53C303.488 571.898 304.138 570.333 305.294 569.179C306.45 568.025 308.016 567.376 309.651 567.374H322.649C324.283 567.376 325.85 568.025 327.006 569.179C328.161 570.333 328.811 571.898 328.813 573.53V681.724C328.811 683.356 328.161 684.921 327.006 686.075C325.85 687.229 324.283 687.879 322.649 687.881Z" fill="#4DA6BA"/>
<path d="M343.928 581.919C343.928 581.919 348.839 626.021 299.263 624.523C249.686 623.026 268.975 579.69 268.975 579.69C268.975 579.69 279.335 571.559 305.524 579.423C331.713 587.287 343.928 581.919 343.928 581.919Z" fill="#CCCCCC"/>
<path d="M322.625 506.863C319.902 506.867 317.25 505.995 315.062 504.376C312.875 502.756 311.268 500.475 310.481 497.871C309.695 495.268 309.769 492.48 310.694 489.922C311.62 487.364 313.346 485.173 315.617 483.672L400.536 427.541C401.211 427.095 401.967 426.786 402.762 426.632C403.557 426.477 404.374 426.481 405.167 426.642C405.961 426.803 406.714 427.119 407.385 427.571C408.057 428.023 408.632 428.603 409.079 429.278L416.252 440.102C417.153 441.465 417.475 443.128 417.149 444.727C416.824 446.327 415.876 447.732 414.514 448.634L329.595 504.766C327.529 506.134 325.104 506.864 322.625 506.863Z" fill="#4DA6BA"/>
<path d="M307.205 454.903C332.01 454.903 352.118 434.82 352.118 410.047C352.118 385.274 332.01 365.192 307.205 365.192C282.401 365.192 262.292 385.274 262.292 410.047C262.292 434.82 282.401 454.903 307.205 454.903Z" fill="#4DA6BA"/>
<path d="M307.238 428.877C310.15 428.796 313.773 428.695 316.565 426.659C317.396 426.027 318.079 425.222 318.565 424.3C319.052 423.377 319.331 422.359 319.383 421.317C319.433 420.577 319.312 419.835 319.027 419.15C318.743 418.464 318.304 417.854 317.744 417.366C316.286 416.135 314.157 415.847 311.863 416.52L314.24 399.171L312.495 398.932L309.701 419.328L311.158 418.661C312.847 417.887 315.166 417.493 316.607 418.709C316.961 419.027 317.237 419.422 317.413 419.864C317.589 420.306 317.661 420.782 317.623 421.256C317.58 422.031 317.37 422.788 317.009 423.475C316.647 424.162 316.141 424.764 315.526 425.238C313.353 426.823 310.465 427.027 307.189 427.119L307.238 428.877Z" fill="#2F2E41"/>
<path d="M332.357 400.667H322.871V402.426H332.357V400.667Z" fill="#2F2E41"/>
<path d="M302.413 400.667H292.927V402.426H302.413V400.667Z" fill="#2F2E41"/>
<path d="M261.838 591.21C261.838 591.21 257.96 459.532 312.25 468.569C366.539 477.606 343.918 604.765 343.918 604.765C343.918 604.765 332.285 628.002 303.848 602.183C275.41 576.364 261.838 591.21 261.838 591.21Z" fill="#2F2E41"/>
<path d="M281.872 372.16C290.611 366.234 301.641 370.259 310.132 374.488C318.379 378.596 327.672 383.821 337.003 379.865C340.647 378.32 343.609 375.298 344.124 371.255C344.737 366.438 341.821 361.929 338.577 358.654C335.052 355.285 330.945 352.581 326.455 350.675C322.053 348.697 317.416 347.288 312.657 346.484C303.229 344.858 293.549 345.504 284.422 348.37C275.296 351.235 266.986 356.237 260.187 362.959C253.609 369.659 248.527 377.675 245.275 386.478C242.023 395.282 240.675 404.673 241.319 414.034C242.061 424.013 245.252 434.188 251.654 442.021C257.66 449.37 266.654 454.537 276.253 454.969C278.605 455.078 280.961 454.887 283.265 454.4C284.923 454.047 285.632 456.59 283.967 456.944C273.97 459.073 263.613 455.91 255.684 449.681C247.336 443.123 242.215 433.196 239.969 422.968C235.672 403.394 241.055 382.329 253.392 366.659C259.483 358.854 267.374 352.635 276.392 348.533C285.705 344.38 295.879 342.515 306.062 343.095C316.218 343.605 326.069 346.722 334.665 352.147C342.354 357.109 351.019 367.629 344.748 376.936C342.404 380.417 338.511 382.537 334.47 383.408C329.832 384.309 325.034 383.892 320.622 382.204C310.577 378.661 301.287 370.745 290.044 371.945C287.593 372.199 285.244 373.055 283.206 374.438C281.795 375.394 280.472 373.109 281.872 372.16H281.872Z" fill="#2F2E41"/>
<path d="M403.823 574.286C402.956 574.286 402.098 574.103 401.308 573.746H401.308L308.396 532.119C306.878 531.44 305.508 530.468 304.365 529.26C303.223 528.053 302.33 526.632 301.738 525.079C301.145 523.526 300.865 521.872 300.913 520.211C300.961 518.55 301.336 516.915 302.017 515.399C302.698 513.883 303.671 512.516 304.882 511.376C306.092 510.236 307.515 509.345 309.07 508.754C310.625 508.164 312.282 507.885 313.945 507.934C315.608 507.983 317.245 508.359 318.762 509.041L411.675 550.668C412.413 550.999 413.079 551.472 413.635 552.06C414.191 552.648 414.625 553.339 414.913 554.095C415.201 554.85 415.337 555.655 415.313 556.463C415.29 557.272 415.107 558.067 414.776 558.805L409.456 570.649C408.967 571.733 408.176 572.652 407.176 573.297C406.177 573.942 405.012 574.286 403.823 574.286Z" fill="#4DA6BA"/>
<path d="M757.822 149.633V156.991H718.395V149.633H757.822ZM720.453 88.7495V156.991H710V88.7495H720.453ZM802.828 148.321V122.214C802.828 120.214 802.358 118.48 801.419 117.012C800.517 115.512 799.145 114.356 797.303 113.543C795.462 112.731 793.187 112.325 790.48 112.325C787.952 112.325 785.731 112.7 783.818 113.45C781.94 114.199 780.46 115.184 779.377 116.402C778.33 117.621 777.806 118.933 777.806 120.339H767.787C767.787 118.527 768.328 116.73 769.412 114.949C770.495 113.168 772.047 111.559 774.069 110.122C776.127 108.653 778.582 107.497 781.435 106.654C784.323 105.779 787.537 105.341 791.075 105.341C795.336 105.341 799.09 105.966 802.34 107.216C805.626 108.466 808.189 110.356 810.03 112.887C811.908 115.387 812.846 118.527 812.846 122.308V145.93C812.846 147.617 813.009 149.414 813.333 151.32C813.695 153.226 814.218 154.867 814.904 156.241V156.991H804.452C803.946 155.991 803.549 154.663 803.261 153.008C802.971 151.32 802.828 149.757 802.828 148.321ZM804.561 126.245L804.668 132.338H794.541C791.688 132.338 789.143 132.541 786.905 132.947C784.666 133.322 782.789 133.9 781.272 134.681C779.756 135.462 778.6 136.447 777.806 137.634C777.012 138.79 776.615 140.149 776.615 141.712C776.615 143.305 777.03 144.759 777.86 146.071C778.691 147.383 779.936 148.429 781.597 149.211C783.294 149.961 785.37 150.336 787.825 150.336C790.895 150.336 793.603 149.773 795.949 148.648C798.296 147.523 800.155 146.149 801.528 144.524C802.935 142.899 803.694 141.321 803.802 139.79L808.081 143.961C807.828 145.274 807.142 146.726 806.023 148.321C804.903 149.913 803.405 151.445 801.528 152.913C799.686 154.351 797.484 155.553 794.92 156.522C792.393 157.46 789.54 157.928 786.363 157.928C782.392 157.928 778.907 157.256 775.911 155.913C772.95 154.57 770.639 152.773 768.978 150.523C767.354 148.242 766.541 145.696 766.541 142.884C766.541 140.165 767.155 137.775 768.383 135.712C769.61 133.619 771.379 131.885 773.69 130.51C776.001 129.104 778.781 128.041 782.03 127.323C785.28 126.604 788.909 126.245 792.916 126.245H804.561ZM828.552 85H838.626V147.148L837.759 156.991H828.552V85ZM878.216 131.213V132.197C878.216 135.884 877.71 139.306 876.699 142.462C875.688 145.586 874.207 148.305 872.258 150.617C870.308 152.929 867.925 154.726 865.109 156.007C862.293 157.288 859.061 157.928 855.415 157.928C851.696 157.928 848.428 157.382 845.612 156.288C842.832 155.163 840.485 153.554 838.572 151.46C836.658 149.367 835.123 146.836 833.968 143.868C832.849 140.899 832.073 137.556 831.64 133.838V129.526C832.073 125.776 832.849 122.417 833.968 119.449C835.123 116.48 836.658 113.95 838.572 111.856C840.485 109.731 842.832 108.122 845.612 107.029C848.392 105.904 851.624 105.341 855.307 105.341C858.989 105.341 862.257 105.966 865.109 107.216C867.961 108.435 870.344 110.184 872.258 112.465C874.207 114.746 875.688 117.48 876.699 120.667C877.71 123.823 878.216 127.338 878.216 131.213ZM868.142 132.197V131.213C868.142 128.682 867.871 126.307 867.33 124.089C866.788 121.839 865.922 119.871 864.73 118.183C863.539 116.465 861.968 115.121 860.019 114.153C858.069 113.153 855.668 112.653 852.815 112.653C850.288 112.653 848.086 113.028 846.208 113.778C844.367 114.528 842.796 115.543 841.496 116.824C840.196 118.074 839.131 119.511 838.301 121.136C837.506 122.73 836.911 124.386 836.513 126.104V137.4C837.091 139.587 838.03 141.696 839.329 143.727C840.666 145.727 842.435 147.367 844.638 148.648C846.876 149.929 849.638 150.57 852.924 150.57C855.631 150.57 857.943 150.101 859.856 149.163C861.806 148.195 863.376 146.867 864.568 145.18C865.795 143.493 866.698 141.54 867.275 139.321C867.853 137.103 868.142 134.728 868.142 132.197ZM888.235 132.197V131.119C888.235 127.463 888.848 124.073 890.076 120.949C891.304 117.793 893.073 115.059 895.384 112.747C897.695 110.403 900.493 108.591 903.779 107.31C907.064 105.997 910.746 105.341 914.827 105.341C918.943 105.341 922.643 105.997 925.929 107.31C929.25 108.591 932.067 110.403 934.378 112.747C936.724 115.059 938.512 117.793 939.74 120.949C940.967 124.073 941.58 127.463 941.58 131.119V132.197C941.58 135.853 940.967 139.243 939.74 142.368C938.512 145.493 936.724 148.226 934.378 150.57C932.067 152.882 929.268 154.695 925.983 156.007C922.733 157.288 919.05 157.928 914.934 157.928C910.818 157.928 907.118 157.288 903.832 156.007C900.546 154.695 897.73 152.882 895.384 150.57C893.073 148.226 891.304 145.493 890.076 142.368C888.848 139.243 888.235 135.853 888.235 132.197ZM898.254 131.119V132.197C898.254 134.728 898.597 137.118 899.283 139.368C899.969 141.587 900.998 143.555 902.37 145.274C903.779 146.993 905.529 148.351 907.623 149.351C909.718 150.32 912.154 150.804 914.934 150.804C917.679 150.804 920.08 150.32 922.138 149.351C924.232 148.351 925.965 146.993 927.337 145.274C928.709 143.555 929.738 141.587 930.424 139.368C931.146 137.118 931.508 134.728 931.508 132.197V131.119C931.508 128.62 931.146 126.26 930.424 124.042C929.738 121.792 928.691 119.808 927.282 118.09C925.911 116.34 924.178 114.965 922.083 113.965C920.026 112.965 917.607 112.465 914.827 112.465C912.083 112.465 909.663 112.965 907.569 113.965C905.512 114.965 903.779 116.34 902.37 118.09C900.998 119.808 899.969 121.792 899.283 124.042C898.597 126.26 898.254 128.62 898.254 131.119ZM964.165 114.246V156.991H954.145V106.279H963.893L964.165 114.246ZM982.47 105.997L982.416 114.059C981.585 113.903 980.791 113.809 980.033 113.778C979.311 113.715 978.481 113.684 977.541 113.684C975.231 113.684 973.191 113.996 971.422 114.621C969.652 115.246 968.154 116.121 966.926 117.246C965.699 118.371 964.724 119.714 964.003 121.277C963.316 122.808 962.865 124.495 962.648 126.339L959.832 127.745C959.832 124.683 960.175 121.808 960.861 119.121C961.583 116.434 962.685 114.059 964.165 111.997C965.645 109.903 967.522 108.278 969.797 107.122C972.108 105.935 974.852 105.341 978.029 105.341C978.751 105.341 979.582 105.419 980.52 105.576C981.459 105.701 982.109 105.841 982.47 105.997ZM1024.12 148.321V122.214C1024.12 120.214 1023.65 118.48 1022.71 117.012C1021.81 115.512 1020.43 114.356 1018.59 113.543C1016.75 112.731 1014.48 112.325 1011.77 112.325C1009.24 112.325 1007.02 112.7 1005.11 113.45C1003.23 114.199 1001.75 115.184 1000.67 116.402C999.62 117.621 999.097 118.933 999.097 120.339H989.077C989.077 118.527 989.619 116.73 990.702 114.949C991.785 113.168 993.338 111.559 995.36 110.122C997.418 108.653 999.873 107.497 1002.73 106.654C1005.61 105.779 1008.83 105.341 1012.37 105.341C1016.63 105.341 1020.38 105.966 1023.63 107.216C1026.92 108.466 1029.48 110.356 1031.32 112.887C1033.2 115.387 1034.14 118.527 1034.14 122.308V145.93C1034.14 147.617 1034.3 149.414 1034.62 151.32C1034.99 153.226 1035.51 154.867 1036.2 156.241V156.991H1025.74C1025.24 155.991 1024.84 154.663 1024.55 153.008C1024.26 151.32 1024.12 149.757 1024.12 148.321ZM1025.85 126.245L1025.96 132.338H1015.83C1012.98 132.338 1010.43 132.541 1008.2 132.947C1005.96 133.322 1004.08 133.9 1002.56 134.681C1001.05 135.462 999.891 136.447 999.097 137.634C998.302 138.79 997.905 140.149 997.905 141.712C997.905 143.305 998.321 144.759 999.151 146.071C999.981 147.383 1001.23 148.429 1002.89 149.211C1004.58 149.961 1006.66 150.336 1009.12 150.336C1012.19 150.336 1014.89 149.773 1017.24 148.648C1019.59 147.523 1021.45 146.149 1022.82 144.524C1024.23 142.899 1024.98 141.321 1025.09 139.79L1029.37 143.961C1029.12 145.274 1028.43 146.726 1027.31 148.321C1026.19 149.913 1024.7 151.445 1022.82 152.913C1020.98 154.351 1018.77 155.553 1016.21 156.522C1013.68 157.46 1010.83 157.928 1007.65 157.928C1003.68 157.928 1000.2 157.256 997.201 155.913C994.24 154.57 991.93 152.773 990.269 150.523C988.644 148.242 987.832 145.696 987.832 142.884C987.832 140.165 988.446 137.775 989.673 135.712C990.901 133.619 992.67 131.885 994.981 130.51C997.291 129.104 1000.07 128.041 1003.32 127.323C1006.57 126.604 1010.2 126.245 1014.21 126.245H1025.85ZM1074.43 106.279V112.934H1042.75V106.279H1074.43ZM1053.47 93.952H1063.49V144.43C1063.49 146.149 1063.8 147.445 1064.41 148.321C1065.03 149.195 1065.82 149.773 1066.79 150.054C1067.77 150.336 1068.82 150.476 1069.94 150.476C1070.77 150.476 1071.63 150.414 1072.54 150.288C1073.47 150.132 1074.18 150.008 1074.65 149.913L1074.7 156.991C1073.91 157.21 1072.86 157.412 1071.56 157.6C1070.3 157.819 1068.76 157.928 1066.96 157.928C1064.5 157.928 1062.24 157.507 1060.19 156.663C1058.13 155.82 1056.49 154.413 1055.26 152.445C1054.07 150.445 1053.47 147.758 1053.47 144.384V93.952ZM1082.45 132.197V131.119C1082.45 127.463 1083.06 124.073 1084.29 120.949C1085.52 117.793 1087.28 115.059 1089.6 112.747C1091.91 110.403 1094.7 108.591 1097.99 107.31C1101.28 105.997 1104.96 105.341 1109.04 105.341C1113.15 105.341 1116.85 105.997 1120.14 107.31C1123.46 108.591 1126.28 110.403 1128.59 112.747C1130.94 115.059 1132.72 117.793 1133.95 120.949C1135.18 124.073 1135.79 127.463 1135.79 131.119V132.197C1135.79 135.853 1135.18 139.243 1133.95 142.368C1132.72 145.493 1130.94 148.226 1128.59 150.57C1126.28 152.882 1123.48 154.695 1120.19 156.007C1116.95 157.288 1113.26 157.928 1109.15 157.928C1105.03 157.928 1101.33 157.288 1098.04 156.007C1094.76 154.695 1091.94 152.882 1089.6 150.57C1087.28 148.226 1085.52 145.493 1084.29 142.368C1083.06 139.243 1082.45 135.853 1082.45 132.197ZM1092.47 131.119V132.197C1092.47 134.728 1092.81 137.118 1093.49 139.368C1094.18 141.587 1095.21 143.555 1096.58 145.274C1097.99 146.993 1099.74 148.351 1101.83 149.351C1103.93 150.32 1106.37 150.804 1109.15 150.804C1111.89 150.804 1114.29 150.32 1116.35 149.351C1118.44 148.351 1120.18 146.993 1121.55 145.274C1122.92 143.555 1123.95 141.587 1124.64 139.368C1125.36 137.118 1125.72 134.728 1125.72 132.197V131.119C1125.72 128.62 1125.36 126.26 1124.64 124.042C1123.95 121.792 1122.9 119.808 1121.49 118.09C1120.12 116.34 1118.39 114.965 1116.3 113.965C1114.24 112.965 1111.82 112.465 1109.04 112.465C1106.29 112.465 1103.87 112.965 1101.78 113.965C1099.72 114.965 1097.99 116.34 1096.58 118.09C1095.21 119.808 1094.18 121.792 1093.49 124.042C1092.81 126.26 1092.47 128.62 1092.47 131.119ZM1158.38 114.246V156.991H1148.36V106.279H1158.11L1158.38 114.246ZM1176.68 105.997L1176.63 114.059C1175.8 113.903 1175 113.809 1174.24 113.778C1173.52 113.715 1172.69 113.684 1171.75 113.684C1169.44 113.684 1167.4 113.996 1165.63 114.621C1163.86 115.246 1162.37 116.121 1161.14 117.246C1159.91 118.371 1158.94 119.714 1158.21 121.277C1157.53 122.808 1157.08 124.495 1156.86 126.339L1154.04 127.745C1154.04 124.683 1154.39 121.808 1155.07 119.121C1155.79 116.434 1156.9 114.059 1158.38 111.997C1159.86 109.903 1161.73 108.278 1164.01 107.122C1166.32 105.935 1169.06 105.341 1172.24 105.341C1172.96 105.341 1173.79 105.419 1174.73 105.576C1175.67 105.701 1176.32 105.841 1176.68 105.997ZM1196.83 106.279V156.991H1186.75V106.279H1196.83ZM1186 92.8271C1186 91.4211 1186.48 90.2337 1187.46 89.2651C1188.47 88.2964 1189.95 87.8121 1191.9 87.8121C1193.81 87.8121 1195.28 88.2964 1196.29 89.2651C1197.33 90.2337 1197.86 91.4211 1197.86 92.8271C1197.86 94.1708 1197.33 95.3268 1196.29 96.2955C1195.28 97.2328 1193.81 97.7015 1191.9 97.7015C1189.95 97.7015 1188.47 97.2328 1187.46 96.2955C1186.48 95.3268 1186 94.1708 1186 92.8271ZM1210.26 132.197V131.119C1210.26 127.463 1210.87 124.073 1212.1 120.949C1213.33 117.793 1215.1 115.059 1217.41 112.747C1219.72 110.403 1222.52 108.591 1225.8 107.31C1229.09 105.997 1232.77 105.341 1236.85 105.341C1240.97 105.341 1244.67 105.997 1247.95 107.31C1251.28 108.591 1254.09 110.403 1256.4 112.747C1258.75 115.059 1260.54 117.793 1261.76 120.949C1262.99 124.073 1263.61 127.463 1263.61 131.119V132.197C1263.61 135.853 1262.99 139.243 1261.76 142.368C1260.54 145.493 1258.75 148.226 1256.4 150.57C1254.09 152.882 1251.29 154.695 1248.01 156.007C1244.76 157.288 1241.08 157.928 1236.96 157.928C1232.84 157.928 1229.14 157.288 1225.86 156.007C1222.57 154.695 1219.76 152.882 1217.41 150.57C1215.1 148.226 1213.33 145.493 1212.1 142.368C1210.87 139.243 1210.26 135.853 1210.26 132.197ZM1220.28 131.119V132.197C1220.28 134.728 1220.62 137.118 1221.31 139.368C1221.99 141.587 1223.02 143.555 1224.4 145.274C1225.8 146.993 1227.55 148.351 1229.65 149.351C1231.74 150.32 1234.18 150.804 1236.96 150.804C1239.7 150.804 1242.1 150.32 1244.16 149.351C1246.26 148.351 1247.99 146.993 1249.36 145.274C1250.73 143.555 1251.76 141.587 1252.45 139.368C1253.17 137.118 1253.53 134.728 1253.53 132.197V131.119C1253.53 128.62 1253.17 126.26 1252.45 124.042C1251.76 121.792 1250.72 119.808 1249.31 118.09C1247.94 116.34 1246.2 114.965 1244.11 113.965C1242.05 112.965 1239.63 112.465 1236.85 112.465C1234.11 112.465 1231.69 112.965 1229.59 113.965C1227.54 114.965 1225.8 116.34 1224.4 118.09C1223.02 119.808 1221.99 121.792 1221.31 124.042C1220.62 126.26 1220.28 128.62 1220.28 131.119Z" fill="#4DA6BA"/>
<path d="M733.667 250.401L749.698 207.516H759.934L738.866 258.228H732.151L733.667 250.401ZM720.29 207.516L736.808 250.636L737.946 258.228H731.23L710 207.516H720.29ZM780.46 207.516V258.228H770.386V207.516H780.46ZM769.628 194.065C769.628 192.658 770.116 191.471 771.09 190.503C772.101 189.534 773.582 189.05 775.531 189.05C777.445 189.05 778.907 189.534 779.918 190.503C780.965 191.471 781.489 192.658 781.489 194.065C781.489 195.408 780.965 196.564 779.918 197.532C778.907 198.47 777.445 198.939 775.531 198.939C773.582 198.939 772.101 198.47 771.09 197.532C770.116 196.564 769.628 195.408 769.628 194.065ZM806.564 215.484V258.228H796.545V207.516H806.294L806.564 215.484ZM824.87 207.235L824.815 215.296C823.985 215.14 823.191 215.047 822.432 215.015C821.71 214.953 820.88 214.921 819.942 214.921C817.631 214.921 815.591 215.234 813.821 215.859C812.052 216.483 810.554 217.358 809.327 218.483C808.099 219.608 807.124 220.952 806.401 222.514C805.716 224.045 805.264 225.733 805.048 227.576L802.231 228.982C802.231 225.92 802.575 223.045 803.261 220.358C803.983 217.671 805.084 215.296 806.564 213.234C808.044 211.14 809.922 209.516 812.197 208.36C814.508 207.173 817.251 206.579 820.429 206.579C821.15 206.579 821.981 206.657 822.92 206.813C823.858 206.938 824.508 207.079 824.87 207.235ZM861.372 207.516V214.171H829.69V207.516H861.372ZM840.413 195.19H850.432V245.667C850.432 247.386 850.739 248.683 851.353 249.558C851.967 250.432 852.761 251.011 853.736 251.292C854.71 251.573 855.758 251.713 856.877 251.713C857.708 251.713 858.574 251.651 859.476 251.526C860.416 251.37 861.119 251.245 861.589 251.151L861.643 258.228C860.849 258.447 859.802 258.65 858.502 258.837C857.238 259.056 855.703 259.166 853.898 259.166C851.444 259.166 849.187 258.744 847.128 257.9C845.071 257.057 843.428 255.65 842.2 253.682C841.009 251.682 840.413 248.996 840.413 245.621V195.19ZM908.978 246.511V207.516H919.05V258.228H909.465L908.978 246.511ZM910.873 235.825L915.044 235.731C915.044 239.106 914.628 242.231 913.797 245.105C913.003 247.949 911.703 250.417 909.898 252.51C908.093 254.604 905.728 256.244 902.803 257.432C899.879 258.588 896.322 259.166 892.134 259.166C889.282 259.166 886.665 258.807 884.282 258.087C881.934 257.369 879.913 256.26 878.216 254.76C876.518 253.26 875.2 251.307 874.262 248.901C873.359 246.495 872.908 243.605 872.908 240.231V207.516H882.927V240.324C882.927 242.606 883.216 244.496 883.794 245.996C884.407 247.464 885.22 248.636 886.231 249.511C887.278 250.354 888.433 250.948 889.697 251.292C890.997 251.635 892.333 251.808 893.704 251.808C897.965 251.808 901.341 251.104 903.832 249.698C906.324 248.261 908.111 246.339 909.194 243.934C910.313 241.496 910.873 238.793 910.873 235.825ZM968.876 249.558V223.451C968.876 221.451 968.407 219.718 967.469 218.249C966.566 216.75 965.193 215.593 963.353 214.78C961.51 213.968 959.237 213.562 956.528 213.562C954.001 213.562 951.78 213.937 949.867 214.687C947.989 215.437 946.509 216.421 945.426 217.64C944.379 218.858 943.856 220.171 943.856 221.577H933.836C933.836 219.764 934.378 217.967 935.461 216.187C936.544 214.405 938.097 212.797 940.118 211.359C942.176 209.891 944.631 208.735 947.484 207.891C950.372 207.016 953.586 206.579 957.124 206.579C961.385 206.579 965.139 207.203 968.389 208.453C971.675 209.703 974.238 211.593 976.079 214.125C977.957 216.624 978.896 219.764 978.896 223.545V247.167C978.896 248.855 979.058 250.651 979.383 252.558C979.744 254.463 980.267 256.104 980.954 257.478V258.228H970.502C969.995 257.229 969.599 255.901 969.309 254.245C969.021 252.558 968.876 250.995 968.876 249.558ZM970.609 227.482L970.718 233.575H960.59C957.738 233.575 955.193 233.778 952.954 234.185C950.715 234.56 948.838 235.137 947.322 235.919C945.805 236.7 944.649 237.684 943.856 238.872C943.061 240.027 942.663 241.387 942.663 242.949C942.663 244.543 943.079 245.996 943.909 247.308C944.74 248.621 945.986 249.667 947.646 250.448C949.343 251.198 951.42 251.573 953.875 251.573C956.944 251.573 959.652 251.011 961.998 249.886C964.345 248.761 966.204 247.386 967.576 245.761C968.985 244.136 969.742 242.558 969.852 241.027L974.13 245.199C973.877 246.511 973.191 247.964 972.072 249.558C970.952 251.151 969.454 252.682 967.576 254.15C965.736 255.588 963.533 256.791 960.97 257.76C958.442 258.697 955.589 259.166 952.412 259.166C948.441 259.166 944.956 258.494 941.96 257.15C938.999 255.807 936.689 254.01 935.027 251.76C933.403 249.479 932.591 246.933 932.591 244.121C932.591 241.402 933.204 239.012 934.431 236.95C935.659 234.856 937.429 233.122 939.74 231.748C942.05 230.341 944.83 229.279 948.079 228.561C951.329 227.841 954.958 227.482 958.965 227.482H970.609ZM1005.54 186.237V258.228H995.468V186.237H1005.54Z" fill="#4DA6BA"/>
<path d="M746.773 305.519L720.669 367.715H710L740.058 299.473H746.936L746.773 305.519ZM768.653 367.715L742.495 305.519L742.332 299.473H749.211L779.377 367.715H768.653ZM767.299 342.452V349.858H722.998V342.452H767.299ZM811.872 361.528C814.255 361.528 816.457 361.107 818.479 360.262C820.501 359.419 822.162 358.263 823.462 356.795C824.761 355.295 825.501 353.592 825.682 351.686H835.213C835.033 354.685 833.86 357.482 831.694 360.075C829.564 362.637 826.765 364.715 823.299 366.309C819.832 367.871 816.024 368.652 811.872 368.652C807.467 368.652 803.621 367.98 800.335 366.636C797.086 365.293 794.379 363.449 792.212 361.107C790.082 358.762 788.475 356.075 787.392 353.045C786.345 349.982 785.822 346.749 785.822 343.343V341.374C785.822 337.968 786.345 334.75 787.392 331.719C788.475 328.657 790.082 325.954 792.212 323.611C794.379 321.267 797.086 319.424 800.335 318.08C803.621 316.737 807.467 316.065 811.872 316.065C816.457 316.065 820.465 316.877 823.895 318.502C827.324 320.096 830.014 322.283 831.964 325.064C833.95 327.814 835.033 330.938 835.213 334.438H825.682C825.501 332.344 824.815 330.453 823.624 328.766C822.468 327.079 820.88 325.736 818.858 324.736C816.872 323.704 814.543 323.189 811.872 323.189C808.802 323.189 806.221 323.72 804.127 324.783C802.069 325.814 800.426 327.22 799.199 329.001C798.007 330.75 797.141 332.703 796.599 334.86C796.094 336.984 795.841 339.156 795.841 341.374V343.343C795.841 345.561 796.094 347.748 796.599 349.904C797.104 352.06 797.953 354.013 799.145 355.763C800.372 357.513 802.015 358.919 804.073 359.982C806.167 361.012 808.767 361.528 811.872 361.528ZM882.332 355.997V317.002H892.404V367.715H882.819L882.332 355.997ZM884.227 345.311L888.398 345.218C888.398 348.592 887.982 351.717 887.152 354.591C886.357 357.435 885.057 359.903 883.252 361.997C881.447 364.09 879.082 365.73 876.157 366.918C873.233 368.074 869.676 368.652 865.488 368.652C862.636 368.652 860.019 368.293 857.636 367.574C855.288 366.855 853.267 365.746 851.57 364.246C849.873 362.747 848.555 360.794 847.616 358.387C846.713 355.982 846.262 353.092 846.262 349.717V317.002H856.281V349.811C856.281 352.092 856.57 353.982 857.148 355.482C857.761 356.951 858.574 358.122 859.585 358.997C860.632 359.841 861.787 360.435 863.052 360.778C864.351 361.122 865.687 361.294 867.058 361.294C871.319 361.294 874.695 360.591 877.186 359.185C879.678 357.747 881.465 355.826 882.549 353.42C883.667 350.983 884.227 348.279 884.227 345.311ZM917.697 326.751V387.212H907.623V317.002H916.83L917.697 326.751ZM957.178 341.937V342.921C957.178 346.608 956.673 350.03 955.661 353.185C954.651 356.31 953.171 359.029 951.221 361.341C949.307 363.653 946.942 365.449 944.126 366.731C941.31 368.012 938.079 368.652 934.431 368.652C930.713 368.652 927.427 368.121 924.575 367.059C921.723 365.996 919.303 364.45 917.317 362.419C915.332 360.387 913.744 357.95 912.551 355.107C911.396 352.264 910.602 349.061 910.168 345.499V340.249C910.602 336.5 911.414 333.141 912.606 330.173C913.797 327.204 915.368 324.673 917.317 322.579C919.303 320.455 921.705 318.846 924.521 317.752C927.337 316.627 930.586 316.065 934.269 316.065C937.952 316.065 941.22 316.69 944.072 317.94C946.924 319.158 949.325 320.908 951.275 323.189C953.225 325.47 954.687 328.204 955.661 331.391C956.673 334.547 957.178 338.062 957.178 341.937ZM947.105 342.921V341.937C947.105 339.406 946.798 337.031 946.184 334.813C945.571 332.563 944.613 330.594 943.313 328.907C942.05 327.188 940.425 325.845 938.44 324.876C936.454 323.877 934.089 323.377 931.345 323.377C928.817 323.377 926.615 323.751 924.737 324.501C922.896 325.251 921.326 326.267 920.026 327.548C918.726 328.798 917.66 330.235 916.83 331.86C916.036 333.453 915.44 335.11 915.044 336.828V348.967C915.765 351.155 916.777 353.217 918.076 355.154C919.376 357.06 921.109 358.606 923.276 359.794C925.442 360.95 928.167 361.528 931.453 361.528C934.161 361.528 936.49 361.044 938.44 360.075C940.425 359.075 942.05 357.716 943.313 355.997C944.613 354.279 945.571 352.31 946.184 350.092C946.798 347.842 947.105 345.452 947.105 342.921ZM1005.81 355.997V317.002H1015.89V367.715H1006.3L1005.81 355.997ZM1007.71 345.311L1011.88 345.218C1011.88 348.592 1011.46 351.717 1010.63 354.591C1009.84 357.435 1008.54 359.903 1006.73 361.997C1004.93 364.09 1002.56 365.73 999.638 366.918C996.714 368.074 993.157 368.652 988.969 368.652C986.116 368.652 983.5 368.293 981.117 367.574C978.769 366.855 976.747 365.746 975.051 364.246C973.353 362.747 972.035 360.794 971.097 358.387C970.194 355.982 969.742 353.092 969.742 349.717V317.002H979.762V349.811C979.762 352.092 980.051 353.982 980.629 355.482C981.242 356.951 982.055 358.122 983.066 358.997C984.113 359.841 985.268 360.435 986.532 360.778C987.832 361.122 989.168 361.294 990.539 361.294C994.8 361.294 998.176 360.591 1000.67 359.185C1003.16 357.747 1004.95 355.826 1006.03 353.42C1007.15 350.983 1007.71 348.279 1007.71 345.311ZM1041.18 327.829V367.715H1031.16V317.002H1040.64L1041.18 327.829ZM1038.79 340.437L1034.62 340.297C1034.66 336.828 1035.26 333.626 1036.41 330.688C1037.57 327.72 1039.19 325.142 1041.29 322.954C1043.38 320.768 1045.87 319.08 1048.76 317.892C1051.68 316.675 1054.92 316.065 1058.45 316.065C1061.34 316.065 1063.94 316.408 1066.25 317.096C1068.56 317.752 1070.53 318.815 1072.16 320.283C1073.82 321.751 1075.08 323.658 1075.95 326.001C1076.81 328.313 1077.25 331.141 1077.25 334.485V367.715H1067.17V334.39C1067.17 331.735 1066.72 329.611 1065.82 328.016C1064.92 326.392 1063.6 325.22 1061.87 324.501C1060.13 323.751 1058 323.377 1055.48 323.377C1052.98 323.377 1050.71 323.829 1048.65 324.736C1046.63 325.642 1044.88 326.891 1043.4 328.486C1041.95 330.078 1040.82 331.907 1039.99 333.969C1039.19 336 1038.79 338.156 1038.79 340.437ZM1117 317.002V323.658H1085.32V317.002H1117ZM1096.04 304.676H1106.06V355.154C1106.06 356.873 1106.37 358.169 1106.98 359.044C1107.59 359.919 1108.39 360.497 1109.36 360.778C1110.34 361.059 1111.38 361.2 1112.5 361.2C1113.33 361.2 1114.2 361.137 1115.1 361.012C1116.04 360.856 1116.75 360.732 1117.22 360.637L1117.27 367.715C1116.48 367.934 1115.43 368.136 1114.13 368.324C1112.86 368.543 1111.33 368.652 1109.53 368.652C1107.07 368.652 1104.81 368.231 1102.76 367.386C1100.7 366.543 1099.05 365.137 1097.83 363.169C1096.64 361.169 1096.04 358.482 1096.04 355.107V304.676ZM1164.6 355.997V317.002H1174.68V367.715H1165.09L1164.6 355.997ZM1166.5 345.311L1170.67 345.218C1170.67 348.592 1170.25 351.717 1169.42 354.591C1168.63 357.435 1167.33 359.903 1165.52 361.997C1163.72 364.09 1161.36 365.73 1158.43 366.918C1155.51 368.074 1151.95 368.652 1147.76 368.652C1144.91 368.652 1142.29 368.293 1139.91 367.574C1137.56 366.855 1135.54 365.746 1133.84 364.246C1132.15 362.747 1130.83 360.794 1129.89 358.387C1128.99 355.982 1128.53 353.092 1128.53 349.717V317.002H1138.55V349.811C1138.55 352.092 1138.84 353.982 1139.42 355.482C1140.03 356.951 1140.85 358.122 1141.86 358.997C1142.9 359.841 1144.06 360.435 1145.32 360.778C1146.62 361.122 1147.96 361.294 1149.33 361.294C1153.59 361.294 1156.97 360.591 1159.46 359.185C1161.95 357.747 1163.74 355.826 1164.82 353.42C1165.94 350.983 1166.5 348.279 1166.5 345.311ZM1199.97 324.97V367.715H1189.95V317.002H1199.7L1199.97 324.97ZM1218.28 316.721L1218.22 324.783C1217.39 324.627 1216.6 324.533 1215.84 324.501C1215.12 324.439 1214.29 324.408 1213.35 324.408C1211.04 324.408 1209 324.72 1207.23 325.345C1205.46 325.97 1203.96 326.845 1202.73 327.97C1201.5 329.095 1200.53 330.438 1199.81 332C1199.12 333.532 1198.67 335.219 1198.45 337.062L1195.64 338.468C1195.64 335.407 1195.98 332.531 1196.67 329.844C1197.39 327.158 1198.49 324.783 1199.97 322.72C1201.45 320.627 1203.33 319.002 1205.6 317.846C1207.91 316.659 1210.66 316.065 1213.83 316.065C1214.56 316.065 1215.39 316.143 1216.33 316.3C1217.26 316.424 1217.91 316.565 1218.28 316.721ZM1259.92 359.044V332.938C1259.92 330.938 1259.45 329.204 1258.51 327.736C1257.61 326.236 1256.24 325.08 1254.4 324.267C1252.56 323.455 1250.28 323.049 1247.58 323.049C1245.05 323.049 1242.83 323.424 1240.91 324.174C1239.04 324.924 1237.56 325.907 1236.47 327.126C1235.43 328.345 1234.9 329.657 1234.9 331.063H1224.88C1224.88 329.251 1225.42 327.454 1226.51 325.673C1227.59 323.892 1229.14 322.283 1231.16 320.846C1233.22 319.377 1235.68 318.221 1238.53 317.377C1241.42 316.502 1244.63 316.065 1248.17 316.065C1252.43 316.065 1256.19 316.69 1259.44 317.94C1262.72 319.19 1265.28 321.08 1267.13 323.611C1269 326.111 1269.94 329.251 1269.94 333.032V356.654C1269.94 358.341 1270.1 360.138 1270.43 362.044C1270.79 363.949 1271.31 365.59 1272 366.965V367.715H1261.55C1261.04 366.715 1260.64 365.387 1260.36 363.731C1260.07 362.044 1259.92 360.481 1259.92 359.044ZM1261.66 336.969L1261.76 343.062H1251.64C1248.78 343.062 1246.24 343.265 1244 343.671C1241.76 344.046 1239.88 344.624 1238.37 345.405C1236.85 346.186 1235.7 347.17 1234.9 348.358C1234.11 349.514 1233.71 350.873 1233.71 352.435C1233.71 354.029 1234.13 355.482 1234.96 356.795C1235.79 358.107 1237.03 359.153 1238.69 359.934C1240.39 360.684 1242.47 361.059 1244.92 361.059C1247.99 361.059 1250.7 360.497 1253.04 359.372C1255.39 358.247 1257.25 356.873 1258.62 355.248C1260.03 353.623 1260.79 352.045 1260.9 350.513L1265.18 354.685C1264.92 355.997 1264.24 357.45 1263.12 359.044C1262 360.637 1260.5 362.168 1258.62 363.637C1256.78 365.074 1254.58 366.277 1252.02 367.246C1249.49 368.183 1246.64 368.652 1243.46 368.652C1239.49 368.652 1236 367.98 1233.01 366.636C1230.05 365.293 1227.73 363.497 1226.07 361.247C1224.45 358.966 1223.64 356.42 1223.64 353.608C1223.64 350.888 1224.25 348.498 1225.48 346.436C1226.71 344.342 1228.47 342.609 1230.79 341.234C1233.1 339.827 1235.88 338.765 1239.13 338.047C1242.38 337.328 1246 336.969 1250.01 336.969H1261.66Z" fill="#4DA6BA"/>
<path d="M1070.95 236.583H1023.68V230.86H1078.43V236.09L1070.95 236.583ZM1059.58 258.978H1058.83C1055.88 258.978 1053.21 258.67 1050.81 258.055C1048.38 257.42 1046.31 256.527 1044.57 255.379C1042.84 254.21 1041.51 252.826 1040.58 251.226C1039.63 249.606 1039.15 247.801 1039.15 245.811C1039.15 243.719 1039.58 241.894 1040.44 240.335C1041.27 238.756 1042.49 237.423 1044.11 236.336C1045.7 235.229 1047.62 234.357 1049.88 233.721C1052.14 233.085 1054.69 232.645 1057.54 232.398H1060.82C1063.65 232.624 1066.19 233.065 1068.45 233.721C1070.71 234.357 1072.63 235.229 1074.22 236.336C1075.82 237.423 1077.04 238.756 1077.9 240.335C1078.73 241.914 1079.14 243.76 1079.14 245.873C1079.14 247.821 1078.66 249.606 1077.68 251.226C1076.71 252.826 1075.34 254.21 1073.58 255.379C1071.82 256.527 1069.76 257.42 1067.38 258.055C1064.98 258.67 1062.38 258.978 1059.58 258.978ZM1058.83 253.256H1059.58C1061.5 253.256 1063.31 253.092 1064.99 252.764C1066.68 252.416 1068.17 251.882 1069.45 251.164C1070.73 250.447 1071.74 249.534 1072.48 248.427C1073.19 247.319 1073.55 245.996 1073.55 244.458C1073.55 242.571 1073.08 241.023 1072.16 239.812C1071.23 238.582 1070.01 237.598 1068.49 236.859C1066.97 236.121 1065.31 235.546 1063.53 235.137H1054.94C1053.64 235.382 1052.38 235.742 1051.16 236.213C1049.93 236.665 1048.84 237.259 1047.88 237.997C1046.91 238.715 1046.14 239.608 1045.57 240.674C1045 241.72 1044.71 242.961 1044.71 244.396C1044.71 245.955 1045.09 247.298 1045.85 248.427C1046.59 249.534 1047.61 250.447 1048.92 251.164C1050.2 251.882 1051.7 252.416 1053.41 252.764C1055.1 253.092 1056.9 253.256 1058.83 253.256ZM1079.14 208.187C1079.14 210.505 1078.69 212.607 1077.79 214.494C1076.86 216.36 1075.57 217.97 1073.9 219.323C1072.24 220.657 1070.27 221.682 1067.99 222.4C1065.71 223.118 1063.21 223.477 1060.5 223.477H1059.01C1055.87 223.477 1053.08 223.077 1050.63 222.277C1048.16 221.477 1046.07 220.391 1044.36 219.016C1042.65 217.642 1041.35 216.083 1040.47 214.34C1039.59 212.597 1039.15 210.792 1039.15 208.925C1039.15 206.547 1039.63 204.495 1040.58 202.773C1041.53 201.029 1042.86 199.604 1044.57 198.497C1046.26 197.389 1048.25 196.569 1050.56 196.036C1052.84 195.502 1055.33 195.236 1058.04 195.236H1061V220.093H1055.62V200.927H1055.12C1053.41 201.009 1051.75 201.317 1050.13 201.85C1048.52 202.363 1047.18 203.183 1046.14 204.311C1045.09 205.439 1044.57 206.977 1044.57 208.925C1044.57 210.218 1044.89 211.407 1045.53 212.495C1046.15 213.581 1047.08 214.515 1048.31 215.294C1049.55 216.073 1051.06 216.678 1052.84 217.109C1054.62 217.54 1056.68 217.755 1059.01 217.755H1060.5C1062.33 217.755 1064.05 217.54 1065.67 217.109C1067.26 216.658 1068.66 216.012 1069.88 215.171C1071.09 214.309 1072.04 213.273 1072.73 212.064C1073.42 210.833 1073.76 209.438 1073.76 207.88C1073.76 205.87 1073.29 204.168 1072.34 202.773C1071.39 201.378 1070.11 200.158 1068.52 199.112L1071.69 195.666C1072.95 196.384 1074.15 197.297 1075.29 198.405C1076.43 199.512 1077.36 200.876 1078.07 202.496C1078.79 204.096 1079.14 205.993 1079.14 208.187Z" fill="#4DA6BA"/>
</svg>
