<svg width="341" height="297" viewBox="0 0 341 297" fill="none" xmlns="http://www.w3.org/2000/svg">
<path d="M299.895 291.339C316.276 277.542 326.227 255.746 323.617 234.528C321.008 213.31 304.845 193.803 283.88 189.298C262.915 184.792 239.017 197.265 232.649 217.678C229.144 178.322 225.106 137.317 204.114 103.802C185.106 73.4551 152.184 51.7406 116.504 47.8559C80.8237 43.9711 43.2571 58.6433 21.0048 86.7137C-1.24757 114.784 -6.69598 155.593 8.88899 187.82C20.3699 211.56 41.5218 229.228 63.6837 243.602C134.388 289.46 222.096 304.954 305.552 292.712L299.895 291.339Z" fill="#4DA6BA" fill-opacity="0.38"/>
<path d="M56.635 58.9008C86.041 82.9383 113.018 109.822 137.176 139.164C161.337 168.476 182.609 200.07 200.691 233.504C210.799 252.259 219.879 271.553 227.89 291.301C229.524 295.318 223.024 297.067 221.409 293.095C207.218 258.279 189.662 224.942 168.991 193.564C148.421 162.299 124.878 133.11 98.6918 106.407C83.8808 91.3116 68.2539 77.0446 51.882 63.6709C48.5262 60.9285 53.307 56.181 56.635 58.9008H56.635Z" fill="white" fill-opacity="0.38"/>
<path d="M33.3328 288.702C33.462 288.702 33.5859 288.65 33.6772 288.559C33.7685 288.467 33.8198 288.343 33.8198 288.214V279.442C33.8198 279.313 33.7685 279.189 33.6772 279.097C33.5859 279.006 33.462 278.954 33.3328 278.954C33.2036 278.954 33.0798 279.006 32.9885 279.097C32.8971 279.189 32.8458 279.313 32.8458 279.442V288.214C32.8458 288.343 32.8971 288.467 32.9885 288.559C33.0798 288.65 33.2037 288.701 33.3328 288.702V288.702Z" fill="#4DA6BA"/>
<path d="M33.333 277.005C31.9881 277.005 30.8979 275.914 30.8979 274.568C30.8979 273.223 31.9881 272.132 33.333 272.132C34.6778 272.132 35.7681 273.223 35.7681 274.568C35.7681 275.914 34.6778 277.005 33.333 277.005Z" fill="#4DA6BA"/>
<path d="M33.8198 284.803C33.8198 284.803 30.776 279.32 26.5145 281.148Z" fill="#4DA6BA"/>
<path d="M164.828 288.702C164.958 288.702 165.081 288.65 165.173 288.559C165.264 288.467 165.315 288.343 165.315 288.214V279.442C165.315 279.313 165.264 279.189 165.173 279.097C165.081 279.006 164.958 278.954 164.828 278.954C164.699 278.954 164.575 279.006 164.484 279.097C164.393 279.189 164.341 279.313 164.341 279.442V288.214C164.341 288.343 164.393 288.467 164.484 288.559C164.575 288.65 164.699 288.701 164.828 288.702V288.702Z" fill="#4DA6BA"/>
<path d="M164.828 277.005C163.483 277.005 162.393 275.914 162.393 274.568C162.393 273.223 163.483 272.132 164.828 272.132C166.173 272.132 167.263 273.223 167.263 274.568C167.263 275.914 166.173 277.005 164.828 277.005Z" fill="#4DA6BA"/>
<path d="M165.315 284.803C165.315 284.803 162.272 279.32 158.01 281.148Z" fill="#4DA6BA"/>
<path d="M140.965 288.702C141.094 288.702 141.218 288.65 141.309 288.559C141.4 288.467 141.452 288.343 141.452 288.214V279.442C141.452 279.313 141.4 279.189 141.309 279.097C141.218 279.006 141.094 278.954 140.965 278.954C140.835 278.954 140.712 279.006 140.62 279.097C140.529 279.189 140.478 279.313 140.478 279.442V288.214C140.478 288.343 140.529 288.467 140.62 288.559C140.712 288.65 140.835 288.701 140.965 288.702V288.702Z" fill="#E6E6E6"/>
<path d="M140.964 277.005C139.619 277.005 138.529 275.914 138.529 274.568C138.529 273.223 139.619 272.132 140.964 272.132C142.309 272.132 143.399 273.223 143.399 274.568C143.399 275.914 142.309 277.005 140.964 277.005Z" fill="#E6E6E6"/>
<path d="M141.452 284.803C141.452 284.803 138.408 279.32 134.146 281.148Z" fill="#E6E6E6"/>
<path d="M87.802 286.902C90.4047 284.707 91.9856 281.238 91.571 277.861C91.1564 274.484 88.5886 271.379 85.2577 270.662C81.9268 269.945 78.1298 271.93 77.1181 275.179C76.5614 268.915 75.9198 262.389 72.5846 257.055C69.5646 252.225 64.334 248.77 58.6652 248.151C52.9964 247.533 47.0279 249.868 43.4925 254.336C39.9571 258.803 39.0914 265.298 41.5675 270.427C43.3916 274.205 46.7522 277.017 50.2732 279.305C61.5066 286.603 75.4416 289.069 88.7009 287.121L87.802 286.902Z" fill="#4DA6BA" fill-opacity="0.38"/>
<path d="M49.1221 250.001C53.8055 253.807 58.1021 258.064 61.9496 262.711C65.7977 267.352 69.1856 272.355 72.0656 277.649C73.6754 280.619 75.1215 283.674 76.3975 286.801C76.6576 287.437 75.6224 287.714 75.3651 287.085C73.1051 281.572 70.3089 276.293 67.0168 271.325C63.7407 266.374 59.991 261.752 55.8204 257.524C53.4615 255.133 50.9726 252.874 48.3651 250.757C47.8306 250.322 48.5921 249.571 49.1221 250.001H49.1221Z" fill="white"/>
<path d="M151.573 204.484C155.989 200.758 158.671 194.872 157.968 189.142C157.264 183.412 152.908 178.144 147.257 176.927C141.606 175.71 135.164 179.079 133.447 184.591C132.503 173.963 131.414 162.889 125.756 153.838C120.632 145.643 111.758 139.779 102.14 138.73C92.5228 137.68 82.3968 141.643 76.3987 149.223C70.4005 156.804 68.9319 167.825 73.1328 176.528C76.2275 182.939 81.929 187.711 87.9028 191.592C106.961 203.977 130.603 208.161 153.098 204.855L151.573 204.484Z" fill="#F2F2F2"/>
<path d="M86.048 141.901C93.9586 148.348 101.216 155.559 107.715 163.429C114.214 171.291 119.937 179.765 124.801 188.733C127.52 193.763 129.963 198.938 132.118 204.235C132.558 205.313 130.809 205.782 130.374 204.716C126.557 195.378 121.834 186.437 116.273 178.02C110.74 169.634 104.406 161.805 97.3618 154.643C93.3775 150.594 89.1736 146.767 84.7693 143.18C83.8666 142.445 85.1527 141.171 86.048 141.901H86.048Z" fill="white"/>
<path d="M98.742 246.086C98.2518 246.087 97.7818 246.281 97.4352 246.628C97.0886 246.974 96.8936 247.443 96.8931 247.933V285.792C96.8936 286.282 97.0886 286.751 97.4352 287.098C97.7818 287.444 98.2518 287.638 98.742 287.639H103.29C103.781 287.638 104.251 287.444 104.597 287.098C104.944 286.751 105.139 286.282 105.139 285.792V247.933C105.139 247.443 104.944 246.974 104.597 246.628C104.251 246.281 103.781 246.087 103.29 246.086H98.742Z" fill="#4DA6BA"/>
<path d="M112.903 287.947H108.354C107.782 287.946 107.234 287.719 106.83 287.315C106.425 286.911 106.198 286.363 106.197 285.792V247.933C106.198 247.362 106.425 246.814 106.83 246.41C107.234 246.006 107.782 245.779 108.354 245.778H112.903C113.475 245.779 114.023 246.006 114.427 246.41C114.832 246.814 115.059 247.362 115.06 247.933V285.792C115.059 286.363 114.832 286.911 114.427 287.315C114.023 287.719 113.475 287.946 112.903 287.947V287.947Z" fill="#4DA6BA"/>
<path d="M120.349 250.868C120.349 250.868 122.067 266.301 104.719 265.776C87.3712 265.252 94.1207 250.088 94.1207 250.088C94.1207 250.088 97.746 247.243 106.91 249.995C116.074 252.747 120.349 250.868 120.349 250.868Z" fill="#CCCCCC"/>
<path d="M112.894 224.604C111.941 224.606 111.013 224.3 110.248 223.734C109.482 223.167 108.92 222.369 108.645 221.458C108.37 220.547 108.396 219.571 108.72 218.676C109.043 217.781 109.647 217.014 110.442 216.489L140.157 196.847C140.393 196.691 140.658 196.583 140.936 196.529C141.214 196.475 141.5 196.476 141.778 196.533C142.056 196.589 142.319 196.7 142.554 196.858C142.789 197.016 142.99 197.219 143.147 197.455L145.657 201.243C145.972 201.72 146.085 202.302 145.971 202.861C145.857 203.421 145.525 203.913 145.049 204.228L115.333 223.87C114.61 224.349 113.762 224.604 112.894 224.604Z" fill="#4DA6BA"/>
<path d="M107.498 206.422C116.178 206.422 123.215 199.395 123.215 190.726C123.215 182.057 116.178 175.03 107.498 175.03C98.8186 175.03 91.7822 182.057 91.7822 190.726C91.7822 199.395 98.8186 206.422 107.498 206.422Z" fill="#4DA6BA"/>
<path d="M107.51 197.315C108.529 197.286 109.796 197.251 110.773 196.539C111.064 196.318 111.303 196.036 111.473 195.713C111.644 195.39 111.741 195.034 111.759 194.67C111.777 194.411 111.735 194.151 111.635 193.911C111.536 193.671 111.382 193.457 111.186 193.287C110.676 192.856 109.931 192.755 109.128 192.991L109.96 186.92L109.349 186.836L108.371 193.973L108.881 193.74C109.473 193.469 110.284 193.331 110.788 193.757C110.912 193.868 111.009 194.006 111.07 194.161C111.132 194.315 111.157 194.482 111.143 194.648C111.129 194.919 111.055 195.184 110.929 195.425C110.802 195.665 110.625 195.875 110.41 196.041C109.65 196.596 108.639 196.668 107.493 196.7L107.51 197.315Z" fill="#2F2E41"/>
<path d="M116.299 187.443H112.98V188.059H116.299V187.443Z" fill="#2F2E41"/>
<path d="M105.821 187.443H102.502V188.059H105.821V187.443Z" fill="#2F2E41"/>
<path d="M91.6233 254.119C91.6233 254.119 90.2663 208.042 109.264 211.204C128.261 214.366 120.345 258.862 120.345 258.862C120.345 258.862 116.274 266.994 106.323 257.959C96.3726 248.924 91.6233 254.119 91.6233 254.119Z" fill="#2F2E41"/>
<path d="M98.6335 177.468C101.691 175.394 105.551 176.803 108.522 178.283C111.408 179.72 114.66 181.549 117.925 180.164C119.2 179.624 120.237 178.566 120.417 177.151C120.631 175.466 119.611 173.888 118.476 172.742C117.242 171.563 115.805 170.617 114.234 169.95C112.694 169.258 111.071 168.765 109.406 168.484C106.107 167.914 102.719 168.141 99.5258 169.143C96.3321 170.146 93.4245 171.896 91.0452 174.248C88.7435 176.593 86.9651 179.398 85.8271 182.478C84.6891 185.559 84.2173 188.845 84.4428 192.121C84.7025 195.613 85.819 199.173 88.0592 201.914C90.161 204.486 93.3081 206.294 96.6671 206.445C97.4902 206.483 98.3148 206.416 99.1208 206.246C99.7011 206.122 99.9491 207.012 99.3666 207.136C95.8682 207.881 92.244 206.774 89.4694 204.595C86.5485 202.3 84.7563 198.826 83.9706 195.247C82.4669 188.398 84.3506 181.027 88.6674 175.543C90.7991 172.812 93.5603 170.636 96.7158 169.2C99.9748 167.747 103.535 167.095 107.098 167.298C110.652 167.476 114.099 168.567 117.107 170.465C119.797 172.201 122.83 175.883 120.635 179.14C119.815 180.357 118.453 181.099 117.039 181.404C115.416 181.72 113.737 181.573 112.193 180.983C108.678 179.743 105.427 176.973 101.493 177.393C100.635 177.482 99.8133 177.781 99.1001 178.265C98.6066 178.6 98.1435 177.8 98.6335 177.468H98.6335Z" fill="#2F2E41"/>
<path d="M141.307 248.197C141.004 248.197 140.704 248.133 140.427 248.008H140.427L107.915 233.442C107.383 233.204 106.904 232.864 106.504 232.442C106.105 232.019 105.792 231.522 105.585 230.978C105.378 230.435 105.279 229.856 105.296 229.275C105.313 228.694 105.444 228.122 105.683 227.591C105.921 227.061 106.262 226.582 106.685 226.183C107.109 225.784 107.607 225.473 108.151 225.266C108.695 225.059 109.275 224.962 109.856 224.979C110.438 224.996 111.011 225.128 111.542 225.366L144.055 239.933C144.313 240.048 144.546 240.214 144.741 240.42C144.935 240.625 145.087 240.867 145.188 241.132C145.288 241.396 145.336 241.678 145.328 241.961C145.32 242.243 145.256 242.522 145.14 242.78L143.278 246.924C143.107 247.304 142.83 247.625 142.48 247.851C142.131 248.077 141.723 248.197 141.307 248.197V248.197Z" fill="#4DA6BA"/>
<path d="M160.203 22.6167V25.1915H146.407V22.6167H160.203ZM147.127 1.31206V25.1915H143.469V1.31206H147.127ZM175.952 22.1575V13.0222C175.952 12.3224 175.788 11.7156 175.459 11.2017C175.143 10.6769 174.663 10.2723 174.019 9.98803C173.375 9.70376 172.578 9.56161 171.631 9.56161C170.747 9.56161 169.97 9.69281 169.3 9.95523C168.643 10.2176 168.125 10.5621 167.746 10.9885C167.38 11.4149 167.196 11.8741 167.196 12.3661H163.69C163.69 11.732 163.88 11.1033 164.259 10.48C164.638 9.85682 165.181 9.29374 165.889 8.79078C166.609 8.2769 167.468 7.87234 168.466 7.57712C169.477 7.27097 170.601 7.1179 171.839 7.1179C173.33 7.1179 174.644 7.33657 175.781 7.77393C176.931 8.21129 177.828 8.87278 178.472 9.75842C179.129 10.6331 179.458 11.732 179.458 13.055V21.3209C179.458 21.9113 179.515 22.5401 179.628 23.2071C179.755 23.8739 179.938 24.4481 180.178 24.9291V25.1915H176.52C176.343 24.8417 176.205 24.377 176.104 23.7975C176.002 23.2071 175.952 22.6603 175.952 22.1575ZM176.558 14.4326L176.596 16.5647H173.052C172.054 16.5647 171.164 16.6358 170.38 16.7779C169.597 16.9091 168.94 17.1114 168.409 17.3847C167.879 17.6581 167.474 18.0025 167.196 18.418C166.918 18.8225 166.779 19.2982 166.779 19.8448C166.779 20.4025 166.925 20.911 167.215 21.3702C167.506 21.8295 167.942 22.1955 168.523 22.469C169.117 22.7314 169.843 22.8626 170.702 22.8626C171.776 22.8626 172.724 22.6658 173.545 22.2722C174.366 21.8785 175.017 21.3975 175.497 20.8289C175.99 20.2602 176.255 19.7082 176.293 19.1724L177.79 20.6321C177.702 21.0913 177.462 21.5996 177.07 22.1575C176.678 22.7148 176.154 23.2507 175.497 23.7645C174.852 24.2675 174.082 24.6884 173.185 25.0275C172.301 25.3555 171.302 25.5195 170.191 25.5195C168.801 25.5195 167.582 25.2844 166.533 24.8141C165.497 24.3441 164.688 23.7154 164.107 22.9282C163.539 22.1299 163.254 21.239 163.254 20.255C163.254 19.3036 163.469 18.4672 163.899 17.7456C164.328 17.013 164.947 16.4062 165.756 15.9251C166.565 15.4331 167.537 15.0613 168.675 14.8098C169.812 14.5584 171.081 14.4326 172.484 14.4326H176.558ZM184.954 0H188.479V21.7473L188.175 25.1915H184.954V0ZM202.332 16.1711V16.5155C202.332 17.8057 202.155 19.003 201.802 20.1073C201.448 21.2007 200.93 22.152 200.247 22.961C199.565 23.77 198.731 24.3987 197.746 24.8472C196.76 25.2954 195.63 25.5195 194.354 25.5195C193.052 25.5195 191.909 25.3282 190.923 24.9453C189.95 24.5517 189.129 23.9888 188.46 23.2562C187.79 22.5235 187.253 21.6379 186.849 20.5993C186.457 19.5606 186.186 18.3906 186.034 17.0895V15.5807C186.186 14.2686 186.457 13.0932 186.849 12.0545C187.253 11.0158 187.79 10.1302 188.46 9.3976C189.129 8.65411 189.95 8.091 190.923 7.70833C191.896 7.31471 193.027 7.1179 194.316 7.1179C195.604 7.1179 196.748 7.33657 197.746 7.77393C198.744 8.20035 199.578 8.81263 200.247 9.61081C200.93 10.409 201.448 11.3657 201.802 12.4809C202.155 13.5852 202.332 14.8153 202.332 16.1711ZM198.807 16.5155V16.1711C198.807 15.2855 198.712 14.4545 198.523 13.6782C198.333 12.891 198.03 12.2021 197.613 11.6117C197.196 11.0103 196.647 10.5402 195.965 10.2012C195.282 9.85136 194.442 9.67641 193.444 9.67641C192.559 9.67641 191.789 9.80762 191.132 10.07C190.487 10.3324 189.938 10.6878 189.483 11.1361C189.028 11.5734 188.655 12.0764 188.365 12.6449C188.087 13.2026 187.879 13.782 187.739 14.3834V18.336C187.942 19.1014 188.27 19.8394 188.725 20.5499C189.192 21.2498 189.812 21.824 190.582 22.2722C191.366 22.7203 192.332 22.9447 193.482 22.9447C194.429 22.9447 195.238 22.7804 195.908 22.4524C196.59 22.1137 197.139 21.6489 197.556 21.0585C197.986 20.4681 198.302 19.7847 198.504 19.0084C198.706 18.2321 198.807 17.4011 198.807 16.5155ZM205.838 16.5155V16.1383C205.838 14.859 206.053 13.6727 206.482 12.5793C206.912 11.475 207.531 10.5183 208.34 9.70921C209.148 8.88918 210.127 8.25501 211.277 7.80673C212.427 7.34751 213.715 7.1179 215.143 7.1179C216.584 7.1179 217.878 7.34751 219.028 7.80673C220.19 8.25501 221.176 8.88918 221.985 9.70921C222.806 10.5183 223.431 11.475 223.861 12.5793C224.29 13.6727 224.505 14.859 224.505 16.1383V16.5155C224.505 17.7948 224.29 18.9811 223.861 20.0745C223.431 21.1679 222.806 22.1244 221.985 22.9447C221.176 23.7537 220.197 24.388 219.047 24.8472C217.91 25.2954 216.621 25.5195 215.181 25.5195C213.741 25.5195 212.446 25.2954 211.296 24.8472C210.146 24.388 209.161 23.7537 208.34 22.9447C207.531 22.1244 206.912 21.1679 206.482 20.0745C206.053 18.9811 205.838 17.7948 205.838 16.5155ZM209.344 16.1383V16.5155C209.344 17.4011 209.464 18.2376 209.704 19.0248C209.944 19.8011 210.304 20.4899 210.784 21.0913C211.277 21.6927 211.89 22.1682 212.623 22.518C213.356 22.8571 214.208 23.0266 215.181 23.0266C216.141 23.0266 216.981 22.8571 217.702 22.518C218.434 22.1682 219.041 21.6927 219.521 21.0913C220.001 20.4899 220.361 19.8011 220.601 19.0248C220.854 18.2376 220.98 17.4011 220.98 16.5155V16.1383C220.98 15.2636 220.854 14.4381 220.601 13.6618C220.361 12.8745 219.995 12.1803 219.502 11.5789C219.022 10.9666 218.415 10.4855 217.683 10.1356C216.963 9.78576 216.116 9.61081 215.143 9.61081C214.183 9.61081 213.336 9.78576 212.604 10.1356C211.884 10.4855 211.277 10.9666 210.784 11.5789C210.304 12.1803 209.944 12.8745 209.704 13.6618C209.464 14.4381 209.344 15.2636 209.344 16.1383ZM232.408 10.234V25.1915H228.902V7.44592H232.313L232.408 10.234ZM238.813 7.34751L238.795 10.1684C238.504 10.1138 238.226 10.081 237.961 10.07C237.708 10.0482 237.417 10.0372 237.089 10.0372C236.28 10.0372 235.567 10.1466 234.947 10.3652C234.328 10.5839 233.804 10.8901 233.374 11.2837C232.945 11.6773 232.604 12.1475 232.351 12.6941C232.111 13.2299 231.953 13.8203 231.877 14.4654L230.892 14.9574C230.892 13.8859 231.012 12.88 231.252 11.9397C231.505 10.9994 231.89 10.1684 232.408 9.4468C232.926 8.71423 233.583 8.14569 234.379 7.74113C235.187 7.32565 236.147 7.1179 237.259 7.1179C237.512 7.1179 237.803 7.14525 238.131 7.19991C238.46 7.24365 238.687 7.29285 238.813 7.34751ZM253.387 22.1575V13.0222C253.387 12.3224 253.223 11.7156 252.894 11.2017C252.578 10.6769 252.098 10.2723 251.454 9.98803C250.809 9.70376 250.014 9.56161 249.066 9.56161C248.182 9.56161 247.405 9.69281 246.735 9.95523C246.078 10.2176 245.56 10.5621 245.181 10.9885C244.815 11.4149 244.632 11.8741 244.632 12.3661H241.125C241.125 11.732 241.315 11.1033 241.694 10.48C242.073 9.85682 242.616 9.29374 243.324 8.79078C244.044 8.2769 244.903 7.87234 245.901 7.57712C246.912 7.27097 248.036 7.1179 249.275 7.1179C250.765 7.1179 252.079 7.33657 253.216 7.77393C254.366 8.21129 255.263 8.87278 255.908 9.75842C256.565 10.6331 256.893 11.732 256.893 13.055V21.3209C256.893 21.9113 256.95 22.5401 257.064 23.2071C257.19 23.8739 257.373 24.4481 257.613 24.9291V25.1915H253.956C253.779 24.8417 253.64 24.377 253.538 23.7975C253.437 23.2071 253.387 22.6603 253.387 22.1575ZM253.993 14.4326L254.031 16.5647H250.487C249.489 16.5647 248.599 16.6358 247.815 16.7779C247.032 16.9091 246.375 17.1114 245.844 17.3847C245.314 17.6581 244.909 18.0025 244.632 18.418C244.354 18.8225 244.214 19.2982 244.214 19.8448C244.214 20.4025 244.36 20.911 244.65 21.3702C244.941 21.8295 245.377 22.1955 245.958 22.469C246.552 22.7314 247.278 22.8626 248.137 22.8626C249.211 22.8626 250.159 22.6658 250.98 22.2722C251.801 21.8785 252.452 21.3975 252.932 20.8289C253.425 20.2602 253.69 19.7082 253.728 19.1724L255.225 20.6321C255.137 21.0913 254.897 21.5996 254.505 22.1575C254.113 22.7148 253.589 23.2507 252.932 23.7645C252.288 24.2675 251.517 24.6884 250.62 25.0275C249.736 25.3555 248.738 25.5195 247.626 25.5195C246.236 25.5195 245.017 25.2844 243.968 24.8141C242.932 24.3441 242.124 23.7154 241.542 22.9282C240.974 22.1299 240.69 21.239 240.69 20.255C240.69 19.3036 240.904 18.4672 241.334 17.7456C241.763 17.013 242.383 16.4062 243.191 15.9251C244 15.4331 244.972 15.0613 246.11 14.8098C247.247 14.5584 248.516 14.4326 249.919 14.4326H253.993ZM270.993 7.44592V9.77482H259.906V7.44592H270.993ZM263.659 3.13253H267.165V20.7961C267.165 21.3975 267.272 21.8512 267.487 22.1575C267.702 22.4634 267.98 22.6658 268.32 22.7642C268.662 22.8626 269.028 22.9116 269.42 22.9116C269.71 22.9116 270.014 22.8899 270.33 22.846C270.658 22.7915 270.904 22.7479 271.069 22.7148L271.088 25.1915C270.81 25.2681 270.443 25.339 269.988 25.4046C269.546 25.4812 269.009 25.5195 268.377 25.5195C267.518 25.5195 266.729 25.372 266.009 25.0765C265.288 24.7816 264.714 24.2893 264.284 23.6007C263.867 22.9009 263.659 21.9607 263.659 20.7798V3.13253ZM273.798 16.5155V16.1383C273.798 14.859 274.012 13.6727 274.442 12.5793C274.872 11.475 275.49 10.5183 276.299 9.70921C277.108 8.88918 278.087 8.25501 279.236 7.80673C280.386 7.34751 281.675 7.1179 283.103 7.1179C284.543 7.1179 285.838 7.34751 286.988 7.80673C288.15 8.25501 289.135 8.88918 289.944 9.70921C290.765 10.5183 291.391 11.475 291.82 12.5793C292.25 13.6727 292.465 14.859 292.465 16.1383V16.5155C292.465 17.7948 292.25 18.9811 291.82 20.0745C291.391 21.1679 290.765 22.1244 289.944 22.9447C289.135 23.7537 288.156 24.388 287.007 24.8472C285.87 25.2954 284.581 25.5195 283.141 25.5195C281.7 25.5195 280.405 25.2954 279.256 24.8472C278.106 24.388 277.12 23.7537 276.299 22.9447C275.49 22.1244 274.872 21.1679 274.442 20.0745C274.012 18.9811 273.798 17.7948 273.798 16.5155ZM277.304 16.1383V16.5155C277.304 17.4011 277.423 18.2376 277.664 19.0248C277.904 19.8011 278.264 20.4899 278.744 21.0913C279.236 21.6927 279.849 22.1682 280.582 22.518C281.315 22.8571 282.168 23.0266 283.141 23.0266C284.101 23.0266 284.941 22.8571 285.661 22.518C286.394 22.1682 287 21.6927 287.48 21.0913C287.96 20.4899 288.321 19.8011 288.561 19.0248C288.813 18.2376 288.94 17.4011 288.94 16.5155V16.1383C288.94 15.2636 288.813 14.4381 288.561 13.6618C288.321 12.8745 287.954 12.1803 287.462 11.5789C286.981 10.9666 286.375 10.4855 285.642 10.1356C284.922 9.78576 284.076 9.61081 283.103 9.61081C282.143 9.61081 281.296 9.78576 280.563 10.1356C279.843 10.4855 279.236 10.9666 278.744 11.5789C278.264 12.1803 277.904 12.8745 277.664 13.6618C277.423 14.4381 277.304 15.2636 277.304 16.1383ZM300.367 10.234V25.1915H296.861V7.44592H300.273L300.367 10.234ZM306.773 7.34751L306.754 10.1684C306.463 10.1138 306.186 10.081 305.92 10.07C305.667 10.0482 305.377 10.0372 305.048 10.0372C304.24 10.0372 303.526 10.1466 302.907 10.3652C302.288 10.5839 301.763 10.8901 301.334 11.2837C300.904 11.6773 300.563 12.1475 300.31 12.6941C300.07 13.2299 299.913 13.8203 299.837 14.4654L298.851 14.9574C298.851 13.8859 298.971 12.88 299.211 11.9397C299.464 10.9994 299.849 10.1684 300.367 9.4468C300.885 8.71423 301.542 8.14569 302.338 7.74113C303.147 7.32565 304.107 7.1179 305.219 7.1179C305.471 7.1179 305.762 7.14525 306.091 7.19991C306.419 7.24365 306.646 7.29285 306.773 7.34751ZM313.823 7.44592V25.1915H310.298V7.44592H313.823ZM310.033 2.73892C310.033 2.2469 310.203 1.83142 310.544 1.49246C310.898 1.15351 311.416 0.984042 312.098 0.984042C312.768 0.984042 313.279 1.15351 313.633 1.49246C314 1.83142 314.183 2.2469 314.183 2.73892C314.183 3.20908 314 3.61361 313.633 3.95257C313.279 4.28058 312.768 4.44459 312.098 4.44459C311.416 4.44459 310.898 4.28058 310.544 3.95257C310.203 3.61361 310.033 3.20908 310.033 2.73892ZM318.523 16.5155V16.1383C318.523 14.859 318.737 13.6727 319.167 12.5793C319.597 11.475 320.216 10.5183 321.024 9.70921C321.833 8.88918 322.812 8.25501 323.962 7.80673C325.111 7.34751 326.4 7.1179 327.828 7.1179C329.268 7.1179 330.563 7.34751 331.713 7.80673C332.875 8.25501 333.861 8.88918 334.669 9.70921C335.49 10.5183 336.116 11.475 336.545 12.5793C336.975 13.6727 337.19 14.859 337.19 16.1383V16.5155C337.19 17.7948 336.975 18.9811 336.545 20.0745C336.116 21.1679 335.49 22.1244 334.669 22.9447C333.861 23.7537 332.881 24.388 331.732 24.8472C330.595 25.2954 329.306 25.5195 327.866 25.5195C326.426 25.5195 325.131 25.2954 323.981 24.8472C322.831 24.388 321.845 23.7537 321.024 22.9447C320.216 22.1244 319.597 21.1679 319.167 20.0745C318.737 18.9811 318.523 17.7948 318.523 16.5155ZM322.029 16.1383V16.5155C322.029 17.4011 322.149 18.2376 322.389 19.0248C322.629 19.8011 322.989 20.4899 323.469 21.0913C323.962 21.6927 324.574 22.1682 325.307 22.518C326.04 22.8571 326.893 23.0266 327.866 23.0266C328.826 23.0266 329.666 22.8571 330.386 22.518C331.119 22.1682 331.726 21.6927 332.206 21.0913C332.686 20.4899 333.046 19.8011 333.286 19.0248C333.539 18.2376 333.665 17.4011 333.665 16.5155V16.1383C333.665 15.2636 333.539 14.4381 333.286 13.6618C333.046 12.8745 332.679 12.1803 332.187 11.5789C331.706 10.9666 331.1 10.4855 330.367 10.1356C329.647 9.78576 328.801 9.61081 327.828 9.61081C326.868 9.61081 326.021 9.78576 325.288 10.1356C324.568 10.4855 323.962 10.9666 323.469 11.5789C322.989 12.1803 322.629 12.8745 322.389 13.6618C322.149 14.4381 322.029 15.2636 322.029 16.1383Z" fill="#4DA6BA"/>
<path d="M151.751 57.8779L157.361 42.8714H160.942L153.57 60.617H151.22L151.751 57.8779ZM147.07 42.8714L152.85 57.9601L153.248 60.617H150.898L143.469 42.8714H147.07ZM168.125 42.8714V60.617H164.6V42.8714H168.125ZM164.335 38.1646C164.335 37.6723 164.505 37.2569 164.846 36.9181C165.2 36.5791 165.718 36.4096 166.4 36.4096C167.07 36.4096 167.582 36.5791 167.935 36.9181C168.302 37.2569 168.485 37.6723 168.485 38.1646C168.485 38.6345 168.302 39.0392 167.935 39.3779C167.582 39.706 167.07 39.8702 166.4 39.8702C165.718 39.8702 165.2 39.706 164.846 39.3779C164.505 39.0392 164.335 38.6345 164.335 38.1646ZM177.259 45.6595V60.617H173.754V42.8714H177.165L177.259 45.6595ZM183.665 42.773L183.646 45.5939C183.355 45.5394 183.078 45.5066 182.812 45.4955C182.559 45.4738 182.269 45.4627 181.941 45.4627C181.132 45.4627 180.418 45.5722 179.799 45.7908C179.18 46.0093 178.655 46.3156 178.226 46.7092C177.796 47.1028 177.455 47.5731 177.202 48.1197C176.963 48.6555 176.805 49.2459 176.729 49.8909L175.743 50.3829C175.743 49.3115 175.863 48.3054 176.104 47.3652C176.356 46.425 176.742 45.5939 177.259 44.8723C177.777 44.1397 178.434 43.5713 179.23 43.1666C180.039 42.7512 180.999 42.5434 182.111 42.5434C182.364 42.5434 182.654 42.5707 182.983 42.6256C183.311 42.6691 183.539 42.7184 183.665 42.773ZM196.438 42.8714V45.2003H185.352V42.8714H196.438ZM189.104 38.5582H192.61V56.2216C192.61 56.823 192.717 57.2768 192.932 57.583C193.147 57.889 193.425 58.0913 193.766 58.1897C194.107 58.2881 194.474 58.3372 194.865 58.3372C195.156 58.3372 195.459 58.3154 195.775 58.2716C196.103 58.217 196.35 58.1734 196.514 58.1403L196.533 60.617C196.255 60.6936 195.889 60.7645 195.434 60.8301C194.992 60.9067 194.455 60.945 193.823 60.945C192.964 60.945 192.174 60.7975 191.454 60.502C190.734 60.2071 190.159 59.7148 189.729 59.0263C189.313 58.3264 189.104 57.3862 189.104 56.2053V38.5582ZM213.097 56.5168V42.8714H216.621V60.617H213.267L213.097 56.5168ZM213.76 52.7775L215.219 52.7447C215.219 53.9255 215.074 55.019 214.783 56.0248C214.505 57.0199 214.05 57.8834 213.419 58.6161C212.787 59.3488 211.96 59.9226 210.936 60.3383C209.913 60.7427 208.668 60.945 207.203 60.945C206.204 60.945 205.289 60.8193 204.455 60.5677C203.633 60.3163 202.926 59.9282 202.332 59.4033C201.738 58.8785 201.277 58.1952 200.949 57.3531C200.633 56.5113 200.475 55.5 200.475 54.3191V42.8714H203.981V54.3519C203.981 55.1502 204.082 55.8117 204.284 56.3365C204.499 56.8503 204.783 57.2602 205.137 57.5665C205.503 57.8617 205.908 58.0695 206.35 58.1897C206.805 58.3099 207.272 58.3702 207.752 58.3702C209.243 58.3702 210.424 58.1241 211.296 57.6321C212.168 57.129 212.793 56.4567 213.172 55.6149C213.564 54.7621 213.76 53.8161 213.76 52.7775ZM234.056 57.583V48.4477C234.056 47.7478 233.892 47.1411 233.564 46.6273C233.248 46.1025 232.768 45.6979 232.124 45.4134C231.479 45.1292 230.683 44.9873 229.736 44.9873C228.851 44.9873 228.074 45.1185 227.405 45.3809C226.748 45.6433 226.23 45.9876 225.851 46.414C225.484 46.8404 225.301 47.2996 225.301 47.7916H221.795C221.795 47.1574 221.985 46.5287 222.364 45.9057C222.743 45.2822 223.286 44.7193 223.993 44.2163C224.714 43.7025 225.573 43.2978 226.571 43.0026C227.581 42.6964 228.706 42.5434 229.944 42.5434C231.435 42.5434 232.749 42.762 233.886 43.1994C235.036 43.6369 235.933 44.2982 236.577 45.1841C237.234 46.0587 237.563 47.1574 237.563 48.4805V56.7464C237.563 57.3368 237.619 57.9656 237.733 58.6326C237.859 59.2994 238.043 59.8736 238.283 60.3546V60.617H234.625C234.448 60.2672 234.309 59.8025 234.208 59.2231C234.107 58.6326 234.056 58.0858 234.056 57.583ZM234.663 49.8581L234.701 51.9902H231.157C230.159 51.9902 229.268 52.0613 228.485 52.2036C227.702 52.3348 227.045 52.5368 226.514 52.8103C225.983 53.0837 225.579 53.428 225.301 53.8436C225.023 54.248 224.884 54.7238 224.884 55.2704C224.884 55.828 225.03 56.3365 225.32 56.7958C225.611 57.255 226.047 57.621 226.628 57.8945C227.222 58.1569 227.948 58.2881 228.807 58.2881C229.881 58.2881 230.829 58.0913 231.65 57.6977C232.471 57.304 233.122 56.823 233.602 56.2544C234.095 55.6858 234.36 55.1336 234.398 54.5978L235.895 56.0576C235.806 56.5168 235.567 57.0251 235.175 57.583C234.783 58.1404 234.259 58.6762 233.602 59.19C232.958 59.693 232.187 60.1139 231.29 60.453C230.405 60.781 229.407 60.945 228.295 60.945C226.906 60.945 225.686 60.7099 224.638 60.2396C223.602 59.7697 222.793 59.1409 222.212 58.3537C221.643 57.5554 221.359 56.6645 221.359 55.6805C221.359 54.729 221.574 53.8927 222.003 53.1711C222.433 52.4384 223.052 51.8317 223.861 51.3507C224.669 50.8584 225.642 50.4869 226.779 50.2355C227.916 49.9838 229.186 49.8581 230.589 49.8581H234.663ZM246.887 35.4255V60.617H243.362V35.4255H246.887Z" fill="#4DA6BA"/>
<path d="M156.337 77.1652L147.203 98.929H143.469L153.987 75.0496H156.394L156.337 77.1652ZM163.994 98.929L154.84 77.1652L154.783 75.0496H157.19L167.746 98.929H163.994ZM163.52 90.0889V92.6805H148.018V90.0889H163.52ZM179.117 96.7641C179.951 96.7641 180.721 96.6167 181.429 96.3212C182.136 96.0262 182.717 95.6216 183.172 95.1078C183.627 94.583 183.886 93.987 183.949 93.32H187.285C187.221 94.3696 186.811 95.3482 186.053 96.2556C185.308 97.1523 184.328 97.8794 183.115 98.437C181.902 98.9836 180.57 99.257 179.117 99.257C177.575 99.257 176.23 99.0219 175.08 98.5517C173.943 98.0817 172.995 97.4364 172.237 96.6167C171.492 95.7964 170.93 94.8561 170.551 93.7957C170.184 92.7241 170.001 91.5925 170.001 90.4007V89.7118C170.001 88.52 170.184 87.394 170.551 86.3333C170.93 85.2619 171.492 84.3159 172.237 83.4961C172.995 82.6758 173.943 82.0308 175.08 81.5606C176.23 81.0906 177.575 80.8555 179.117 80.8555C180.721 80.8555 182.124 81.1397 183.324 81.7083C184.524 82.2659 185.465 83.0314 186.147 84.0044C186.842 84.9667 187.221 86.0599 187.285 87.2845H183.949C183.886 86.5519 183.646 85.8903 183.229 85.2999C182.825 84.7095 182.269 84.2395 181.562 83.8897C180.867 83.5286 180.052 83.3484 179.117 83.3484C178.043 83.3484 177.139 83.5342 176.407 83.906C175.686 84.2668 175.112 84.7588 174.682 85.3821C174.265 85.9943 173.962 86.6776 173.772 87.4323C173.596 88.1757 173.507 88.9356 173.507 89.7118V90.4007C173.507 91.1769 173.596 91.9423 173.772 92.6968C173.949 93.4512 174.246 94.1345 174.663 94.7467C175.093 95.3592 175.668 95.8512 176.388 96.223C177.121 96.5836 178.03 96.7641 179.117 96.7641ZM203.773 94.8289V81.1835H207.297V98.929H203.943L203.773 94.8289ZM204.436 91.0895L205.895 91.0567C205.895 92.2375 205.75 93.331 205.459 94.3368C205.181 95.3319 204.726 96.1955 204.095 96.9281C203.463 97.6608 202.635 98.2347 201.612 98.6504C200.589 99.0547 199.344 99.257 197.879 99.257C196.88 99.257 195.965 99.1314 195.131 98.8797C194.309 98.6283 193.602 98.2402 193.008 97.7154C192.414 97.1906 191.953 96.5072 191.625 95.6652C191.309 94.8234 191.151 93.812 191.151 92.6312V81.1835H194.657V92.664C194.657 93.4622 194.758 94.1238 194.96 94.6486C195.175 95.1624 195.459 95.5723 195.813 95.8785C196.179 96.1737 196.583 96.3815 197.026 96.5017C197.481 96.6219 197.948 96.6823 198.428 96.6823C199.919 96.6823 201.1 96.4361 201.972 95.9441C202.844 95.4411 203.469 94.7688 203.848 93.9269C204.24 93.0741 204.436 92.1281 204.436 91.0895ZM216.148 84.5948V105.752H212.623V81.1835H215.844L216.148 84.5948ZM229.963 89.9086V90.2532C229.963 91.5432 229.786 92.7406 229.432 93.8448C229.079 94.9383 228.561 95.8895 227.879 96.6985C227.209 97.5076 226.381 98.1363 225.396 98.5847C224.41 99.0329 223.28 99.257 222.003 99.257C220.702 99.257 219.552 99.0713 218.555 98.6994C217.556 98.3276 216.71 97.7865 216.015 97.0759C215.32 96.365 214.764 95.5122 214.347 94.5174C213.943 93.5223 213.665 92.4016 213.513 91.1551V89.3182C213.665 88.0062 213.949 86.8308 214.366 85.7922C214.783 84.7533 215.333 83.8677 216.015 83.135C216.71 82.3916 217.55 81.8285 218.535 81.4459C219.521 81.0523 220.658 80.8555 221.947 80.8555C223.235 80.8555 224.379 81.0741 225.377 81.5115C226.375 81.9379 227.215 82.5501 227.897 83.3484C228.58 84.1466 229.092 85.1031 229.432 86.2184C229.786 87.3229 229.963 88.5528 229.963 89.9086ZM226.438 90.2532V89.9086C226.438 89.023 226.331 88.192 226.116 87.4157C225.901 86.6285 225.566 85.9397 225.111 85.3493C224.669 84.7478 224.101 84.2778 223.406 83.9388C222.711 83.589 221.884 83.414 220.923 83.414C220.039 83.414 219.268 83.5452 218.611 83.8076C217.967 84.07 217.417 84.4253 216.963 84.8738C216.508 85.3109 216.135 85.814 215.844 86.3826C215.566 86.94 215.358 87.5197 215.219 88.1208V92.3688C215.472 93.1342 215.826 93.8558 216.28 94.5336C216.735 95.2007 217.342 95.7418 218.1 96.1574C218.858 96.5618 219.811 96.7641 220.961 96.7641C221.909 96.7641 222.724 96.5946 223.406 96.2556C224.101 95.9058 224.669 95.4303 225.111 94.8289C225.566 94.2274 225.901 93.5386 226.116 92.7624C226.331 91.9751 226.438 91.1386 226.438 90.2532ZM246.982 94.8289V81.1835H250.506V98.929H247.152L246.982 94.8289ZM247.645 91.0895L249.104 91.0567C249.104 92.2375 248.959 93.331 248.668 94.3368C248.39 95.3319 247.935 96.1955 247.304 96.9281C246.672 97.6608 245.845 98.2347 244.821 98.6504C243.798 99.0547 242.553 99.257 241.088 99.257C240.089 99.257 239.174 99.1314 238.34 98.8797C237.518 98.6283 236.811 98.2402 236.217 97.7154C235.623 97.1906 235.162 96.5072 234.834 95.6652C234.518 94.8234 234.36 93.812 234.36 92.6312V81.1835H237.866V92.664C237.866 93.4622 237.967 94.1238 238.169 94.6486C238.384 95.1624 238.668 95.5723 239.022 95.8785C239.388 96.1737 239.792 96.3815 240.235 96.5017C240.69 96.6219 241.157 96.6823 241.637 96.6823C243.128 96.6823 244.309 96.4361 245.181 95.9441C246.053 95.4411 246.678 94.7688 247.057 93.9269C247.449 93.0741 247.645 92.1281 247.645 91.0895ZM259.357 84.9719V98.929H255.851V81.1835H259.167L259.357 84.9719ZM258.523 89.3838L257.064 89.3348C257.076 88.1208 257.285 87.0003 257.689 85.9725C258.093 84.9339 258.662 84.0317 259.395 83.2662C260.127 82.501 260.999 81.9106 262.01 81.495C263.033 81.0688 264.164 80.8555 265.402 80.8555C266.413 80.8555 267.323 80.9756 268.131 81.2163C268.94 81.4459 269.628 81.8177 270.197 82.3315C270.778 82.8453 271.22 83.5124 271.523 84.3324C271.827 85.1414 271.978 86.131 271.978 87.3011V98.929H268.453V87.268C268.453 86.3388 268.295 85.5954 267.98 85.0375C267.664 84.4691 267.202 84.059 266.596 83.8076C265.99 83.5452 265.244 83.414 264.36 83.414C263.488 83.414 262.692 83.5725 261.972 83.8897C261.265 84.2067 260.652 84.6439 260.134 85.2018C259.628 85.7591 259.23 86.3989 258.94 87.1205C258.662 87.8311 258.523 88.5856 258.523 89.3838ZM285.889 81.1835V83.5124H274.802V81.1835H285.889ZM278.554 76.8702H282.06V94.5336C282.06 95.1351 282.168 95.5888 282.383 95.895C282.597 96.201 282.875 96.4033 283.217 96.5017C283.557 96.6001 283.924 96.6492 284.315 96.6492C284.606 96.6492 284.909 96.6274 285.225 96.5836C285.554 96.529 285.8 96.4855 285.964 96.4524L285.983 98.929C285.705 99.0057 285.339 99.0765 284.884 99.1421C284.442 99.2187 283.905 99.257 283.273 99.257C282.414 99.257 281.625 99.1096 280.904 98.8141C280.184 98.5192 279.609 98.0269 279.18 97.3383C278.763 96.6384 278.554 95.6982 278.554 94.5174V76.8702ZM302.547 94.8289V81.1835H306.072V98.929H302.717L302.547 94.8289ZM303.21 91.0895L304.669 91.0567C304.669 92.2375 304.524 93.331 304.233 94.3368C303.955 95.3319 303.501 96.1955 302.869 96.9281C302.237 97.6608 301.41 98.2347 300.386 98.6504C299.363 99.0547 298.118 99.257 296.653 99.257C295.655 99.257 294.739 99.1314 293.905 98.8797C293.084 98.6283 292.376 98.2402 291.783 97.7154C291.189 97.1906 290.727 96.5072 290.399 95.6652C290.083 94.8234 289.925 93.812 289.925 92.6312V81.1835H293.431V92.664C293.431 93.4622 293.532 94.1238 293.734 94.6486C293.949 95.1624 294.233 95.5723 294.587 95.8785C294.954 96.1737 295.358 96.3815 295.8 96.5017C296.255 96.6219 296.722 96.6823 297.202 96.6823C298.693 96.6823 299.875 96.4361 300.746 95.9441C301.618 95.4411 302.244 94.7688 302.623 93.9269C303.014 93.0741 303.21 92.1281 303.21 91.0895ZM314.922 83.9716V98.929H311.416V81.1835H314.827L314.922 83.9716ZM321.328 81.0851L321.308 83.906C321.018 83.8514 320.74 83.8186 320.475 83.8076C320.222 83.7858 319.931 83.7748 319.603 83.7748C318.794 83.7748 318.081 83.8842 317.461 84.1028C316.842 84.3214 316.318 84.6276 315.889 85.0212C315.459 85.4149 315.118 85.8851 314.865 86.4317C314.625 86.9675 314.467 87.558 314.391 88.203L313.406 88.695C313.406 87.6236 313.526 86.6175 313.766 85.6773C314.019 84.737 314.404 83.906 314.922 83.1844C315.44 82.4517 316.097 81.8833 316.893 81.4787C317.702 81.0633 318.662 80.8555 319.773 80.8555C320.026 80.8555 320.317 80.8827 320.645 80.9376C320.974 80.9812 321.201 81.0305 321.328 81.0851ZM335.901 95.895V86.7597C335.901 86.0599 335.737 85.4532 335.408 84.9394C335.093 84.4145 334.613 84.0099 333.968 83.7255C333.324 83.4413 332.528 83.2993 331.58 83.2993C330.696 83.2993 329.919 83.4305 329.249 83.6929C328.592 83.9553 328.074 84.2996 327.695 84.726C327.329 85.1524 327.145 85.6117 327.145 86.1037H323.64C323.64 85.4694 323.829 84.8407 324.208 84.2177C324.587 83.5942 325.131 83.0314 325.838 82.5283C326.558 82.0145 327.417 81.6099 328.415 81.3147C329.426 81.0084 330.551 80.8555 331.789 80.8555C333.28 80.8555 334.593 81.0741 335.731 81.5115C336.88 81.9489 337.777 82.6102 338.422 83.4961C339.079 84.3707 339.407 85.4694 339.407 86.7925V95.0585C339.407 95.6489 339.464 96.2776 339.577 96.9447C339.704 97.6115 339.887 98.1856 340.127 98.6666V98.929H336.469C336.293 98.5792 336.154 98.1145 336.053 97.5351C335.952 96.9447 335.901 96.3978 335.901 95.895ZM336.508 88.1702L336.545 90.3023H333.002C332.003 90.3023 331.113 90.3734 330.329 90.5156C329.546 90.6468 328.889 90.8489 328.358 91.1223C327.828 91.3957 327.423 91.74 327.145 92.1557C326.868 92.56 326.729 93.0358 326.729 93.5824C326.729 94.14 326.874 94.6486 327.165 95.1078C327.455 95.567 327.891 95.9331 328.472 96.2065C329.066 96.4689 329.793 96.6001 330.652 96.6001C331.726 96.6001 332.673 96.4033 333.494 96.0097C334.315 95.6161 334.966 95.1351 335.446 94.5664C335.939 93.9978 336.204 93.4457 336.242 92.9098L337.739 94.3696C337.651 94.8289 337.411 95.3371 337.019 95.895C336.627 96.4524 336.103 96.9882 335.446 97.502C334.802 98.0051 334.031 98.426 333.134 98.765C332.25 99.093 331.252 99.257 330.14 99.257C328.75 99.257 327.531 99.0219 326.482 98.5517C325.446 98.0817 324.638 97.453 324.057 96.6657C323.488 95.8675 323.204 94.9766 323.204 93.9926C323.204 93.041 323.419 92.2047 323.848 91.4831C324.278 90.7505 324.897 90.1438 325.705 89.6628C326.514 89.1705 327.487 88.7989 328.624 88.5475C329.761 88.2959 331.031 88.1702 332.433 88.1702H336.508Z" fill="#4DA6BA"/>
<path d="M269.773 53.0426H253.235V51.0402H272.392V52.8704L269.773 53.0426ZM265.795 60.8794H265.533C264.501 60.8794 263.566 60.7716 262.727 60.5564C261.878 60.334 261.151 60.0218 260.544 59.62C259.937 59.2107 259.471 58.7265 259.147 58.1665C258.814 57.5997 258.648 56.968 258.648 56.2719C258.648 55.5399 258.798 54.9011 259.097 54.3558C259.388 53.8032 259.816 53.3366 260.382 52.9563C260.939 52.5689 261.612 52.2638 262.402 52.0414C263.192 51.8187 264.086 51.6647 265.084 51.5784H266.231C267.22 51.6575 268.11 51.8116 268.9 52.0414C269.69 52.2638 270.363 52.5689 270.921 52.9563C271.477 53.3366 271.906 53.8032 272.205 54.3558C272.496 54.9083 272.642 55.5543 272.642 56.2934C272.642 56.9752 272.471 57.5997 272.13 58.1665C271.789 58.7265 271.311 59.2107 270.696 59.62C270.081 60.0218 269.357 60.334 268.526 60.5564C267.686 60.7716 266.776 60.8794 265.795 60.8794ZM265.533 58.877H265.795C266.468 58.877 267.1 58.8197 267.69 58.7047C268.28 58.5829 268.8 58.3964 269.249 58.145C269.698 57.894 270.052 57.5746 270.309 57.1871C270.559 56.7994 270.683 56.3367 270.683 55.7984C270.683 55.1381 270.521 54.5963 270.197 54.1728C269.873 53.7423 269.445 53.3978 268.913 53.1393C268.38 52.8811 267.803 52.6799 267.179 52.5366H264.173C263.716 52.6226 263.275 52.7483 262.851 52.9133C262.419 53.0713 262.036 53.2793 261.704 53.5375C261.363 53.7889 261.093 54.1011 260.893 54.4743C260.693 54.8402 260.594 55.2745 260.594 55.7767C260.594 56.3223 260.727 56.7922 260.993 57.1871C261.251 57.5746 261.608 57.894 262.065 58.145C262.514 58.3964 263.038 58.5829 263.637 58.7047C264.227 58.8197 264.859 58.877 265.533 58.877ZM272.642 43.1064C272.642 43.9175 272.483 44.653 272.168 45.3133C271.843 45.9661 271.39 46.5297 270.808 47.0032C270.226 47.4697 269.536 47.8285 268.738 48.0799C267.94 48.3309 267.067 48.4566 266.119 48.4566H265.595C264.497 48.4566 263.521 48.3166 262.664 48.0366C261.799 47.7569 261.068 47.3766 260.469 46.8957C259.87 46.4148 259.417 45.8694 259.109 45.2593C258.802 44.6494 258.648 44.0178 258.648 43.3646C258.648 42.5324 258.814 41.8145 259.147 41.2118C259.48 40.6016 259.945 40.1028 260.544 39.7153C261.134 39.3279 261.833 39.0407 262.639 38.8541C263.437 38.6676 264.31 38.5744 265.258 38.5744H266.293V47.2724H264.41V40.5658H264.236C263.637 40.5945 263.055 40.7022 262.489 40.8888C261.924 41.0682 261.458 41.3553 261.093 41.75C260.727 42.1446 260.544 42.6828 260.544 43.3646C260.544 43.8169 260.656 44.233 260.881 44.6136C261.097 44.9939 261.421 45.3205 261.853 45.593C262.286 45.8658 262.814 46.0775 263.437 46.2282C264.061 46.379 264.78 46.4542 265.595 46.4542H266.119C266.759 46.4542 267.362 46.379 267.927 46.2282C268.484 46.0703 268.975 45.8443 269.399 45.55C269.823 45.2485 270.156 44.8861 270.397 44.4628C270.638 44.0321 270.758 43.544 270.758 42.9987C270.758 42.2954 270.592 41.6998 270.259 41.2118C269.927 40.7237 269.482 40.2968 268.925 39.9306L270.035 38.7249C270.476 38.9762 270.895 39.2956 271.294 39.6831C271.694 40.0706 272.018 40.5479 272.267 41.1148C272.517 41.6748 272.642 42.3384 272.642 43.1064Z" fill="#4DA6BA"/>
</svg>
