<svg width="93" height="88" viewBox="0 0 93 88" fill="none" xmlns="http://www.w3.org/2000/svg">
<path d="M62.0004 71.8016C62.0004 71.8016 78.1121 69.5 86.7434 60.1049C97.6834 48.1922 86.651 39.5732 86.651 39.5732C84.4772 38.824 84.328 38.2571 83.7597 36.9612L84.4559 33.5393C85.1166 22.4905 85.7772 11.435 86.4379 0.38623C78.652 10.3348 70.859 20.2834 63.0731 30.2321C62.2775 28.4165 61.489 26.6009 60.6933 24.7853C58.9884 27.2826 57.2905 29.7798 55.5856 32.2771C55.1523 30.259 54.2998 28.322 53.085 26.6144C50.9752 29.5639 48.4675 32.2501 45.6401 34.5922C45.0434 31.6899 43.8855 28.8957 42.2373 26.3849C40.2838 29.4829 38.3373 32.5808 36.3837 35.6788C35.7728 32.6213 34.7711 29.6314 33.4072 26.8034C30.6367 30.988 28.1929 35.3616 26.1044 39.8837C25.4508 37.0422 24.6552 34.2344 23.7317 31.4672C19.9737 34.2884 18.0201 39.121 18.8157 43.6026C20.471 34.1062 22.112 24.2858 19.654 14.9447C18.0485 14.9109 16.7698 16.1596 15.7255 17.3205C7.05877 26.9856 0.516067 36.293 0.516067 49.1709C-0.421649 66.672 8.88448 74.0896 33.3077 76.2832C44.539 82.8706 61.766 82.4049 62.0004 71.8016Z" fill="#020203"/>
<path d="M62.1209 72.2134C65.9072 71.6667 69.6794 70.5396 73.2172 69.1762C79.973 66.571 86.672 62.4876 90.1671 56.1905C91.7016 53.43 92.3977 50.3186 91.7939 47.2341C91.3677 45.0676 90.3234 43.0361 88.9239 41.2947C88.4622 40.7278 87.972 40.1811 87.4321 39.6816C86.9846 39.2699 86.7075 39.1754 86.0966 38.9122C85.4359 38.6288 84.9102 38.2845 84.5692 37.6636C84.2496 37.0967 84.1856 37.1034 84.3064 36.5095C84.4982 35.5646 84.7468 34.6197 84.8889 33.668C85.0665 32.4194 85.0523 31.1167 85.1304 29.8614C85.2086 28.525 85.2938 27.1819 85.372 25.8455C85.5425 23.058 85.7059 20.2638 85.8764 17.4763C86.2173 11.7867 86.5583 6.09023 86.8993 0.400539C86.9277 -0.0584152 86.3097 -0.11241 86.0753 0.184561C78.2681 10.1263 70.4822 20.0748 62.6892 30.0234C62.9591 30.0571 63.2291 30.0909 63.499 30.1246C62.7034 28.309 61.9148 26.4935 61.1192 24.6779C60.9771 24.3472 60.5296 24.2527 60.3094 24.5766C58.6044 27.0739 56.9066 29.5711 55.2016 32.0684C55.4716 32.1021 55.7415 32.1359 56.0115 32.1696C55.5497 30.1043 54.6902 28.1673 53.4683 26.4057C53.2765 26.129 52.8929 26.1357 52.7011 26.4057C50.5983 29.3282 48.1261 31.9672 45.3201 34.2957C45.5687 34.3564 45.8174 34.4172 46.0589 34.4847C45.4338 31.5352 44.2687 28.741 42.6135 26.183C42.4359 25.913 42.0239 25.9063 41.8463 26.183C39.8927 29.2809 37.9462 32.3789 35.9927 35.4768C36.2626 35.5106 36.5326 35.5443 36.8025 35.5781C36.1703 32.4734 35.1544 29.4767 33.7833 26.6014C33.6413 26.2977 33.1795 26.3585 33.0161 26.6014C30.2527 30.7928 27.8161 35.1596 25.7133 39.6816C25.9832 39.7154 26.2532 39.7491 26.5231 39.7829C25.8625 36.9414 25.0668 34.1337 24.1504 31.3665C24.0439 31.0425 23.6674 30.9818 23.4116 31.1775C19.5116 34.1674 17.6006 39.0405 18.3821 43.7245C18.446 44.1295 19.1706 44.1295 19.2416 43.7245C20.8968 34.2079 22.5379 24.3742 20.0799 14.8441C20.0373 14.6686 19.8455 14.5269 19.6537 14.5336C17.0181 14.5944 15.3203 17.1051 13.8142 18.8465C12.0809 20.8443 10.3973 22.8893 8.8344 25.0086C5.80813 29.1257 3.24362 33.587 1.71628 38.4128C0.26708 42.9956 -0.109427 47.8281 0.0255471 52.5931C0.117898 55.8463 0.643588 59.1197 1.99333 62.1299C4.68571 68.1503 10.4683 71.7275 16.7979 73.7455C21.1597 75.1359 25.7204 75.8918 30.2811 76.4115C30.9205 76.4858 31.5527 76.5532 32.1921 76.614C32.9593 76.6882 33.4068 76.857 34.0746 77.2147C35.0407 77.7344 36.0424 78.1933 37.0582 78.6118C39.09 79.4352 41.2069 80.0696 43.3736 80.4881C49.6819 81.703 59.8831 81.487 62.0853 74.218C62.3198 73.4418 62.4263 72.6319 62.4547 71.822C62.469 71.282 61.581 71.282 61.5668 71.822C61.3252 79.6039 51.7491 80.8188 45.3769 79.9617C43.2813 79.6782 41.2211 79.1855 39.2249 78.5173C38.2162 78.1731 37.2216 77.7884 36.2484 77.3429C35.7653 77.1202 35.2894 76.8907 34.8205 76.6477C34.3872 76.425 33.9467 76.074 33.485 75.9188C33.0303 75.7636 32.4052 75.7973 31.915 75.7501C31.2401 75.6826 30.5582 75.6083 29.8833 75.5273C28.6401 75.3789 27.3969 75.2101 26.1608 75.0144C24.0439 74.6837 21.9411 74.272 19.8739 73.7455C13.5869 72.1459 7.23602 69.318 3.84745 63.7768C2.27038 61.1985 1.44633 58.2626 1.11245 55.3131C0.913536 53.5785 0.870913 51.8372 0.934848 50.0959C1.0201 47.6459 1.09824 45.2229 1.54578 42.7998C3.34308 33.0673 9.51638 24.7454 16.2296 17.4426C17.1389 16.4572 18.2045 15.4178 19.6679 15.3841C19.5258 15.2828 19.3837 15.1748 19.2416 15.0736C21.6641 24.4484 20.0373 34.1404 18.4034 43.5085C18.6875 43.5085 18.9717 43.5085 19.2629 43.5085C18.5312 39.108 20.428 34.5724 24.0581 31.7849C23.8095 31.7242 23.5608 31.6634 23.3193 31.596C24.2428 34.3699 25.0313 37.1776 25.692 40.0124C25.7701 40.3431 26.3455 40.4443 26.5018 40.1136C28.6046 35.5916 31.0412 31.218 33.8047 27.0334C33.5489 27.0334 33.2932 27.0334 33.0374 27.0334C34.3801 29.8411 35.3533 32.7838 35.9714 35.8075C36.0495 36.1787 36.5965 36.199 36.7812 35.9088C38.7348 32.8108 40.6812 29.7129 42.6348 26.6149C42.3791 26.6149 42.1233 26.6149 41.8676 26.6149C43.4944 29.1189 44.6168 31.8389 45.2277 34.7209C45.2988 35.0516 45.7392 35.0989 45.9666 34.9099C48.8223 32.5341 51.3371 29.8276 53.4825 26.8512C53.2268 26.8512 52.971 26.8512 52.7153 26.8512C53.9016 28.552 54.7257 30.4148 55.1732 32.4126C55.2585 32.7838 55.7913 32.7973 55.9831 32.5139C57.688 30.0166 59.3859 27.5194 61.0908 25.0221C60.8208 24.9884 60.5509 24.9546 60.2809 24.9209C61.0766 26.7364 61.8651 28.552 62.6608 30.3676C62.8099 30.7185 63.2362 30.7725 63.4706 30.4688C71.2565 20.5203 79.0495 10.5718 86.8354 0.623267C86.5583 0.549025 86.2813 0.481531 86.0113 0.407289C85.4217 10.2276 84.8321 20.0546 84.2495 29.8749C84.1572 31.461 84.1288 33.0268 83.8091 34.5859C83.6528 35.3621 83.1627 36.4892 83.4184 37.2586C83.8233 38.487 84.6687 39.2564 85.8977 39.7491C86.3736 39.9381 86.537 40.0259 86.9135 40.3836C90.3518 43.63 91.9857 48.341 90.6573 52.8428C88.59 59.8621 81.5572 64.7014 74.9079 67.5901C70.8232 69.3652 66.3548 70.7758 61.8935 71.417C61.3181 71.4778 61.5597 72.2944 62.1209 72.2134Z" fill="white"/>
<path d="M32.7387 60.1118C36.2619 60.1118 39.118 56.7666 39.118 52.6401C39.118 48.5136 36.2619 45.1685 32.7387 45.1685C29.2155 45.1685 26.3594 48.5136 26.3594 52.6401C26.3594 56.7666 29.2155 60.1118 32.7387 60.1118Z" fill="white"/>
<path d="M61.7661 52.6401C66.2191 52.6401 69.829 48.6907 69.829 43.8188C69.829 38.947 66.2191 34.9976 61.7661 34.9976C57.313 34.9976 53.7031 38.947 53.7031 43.8188C53.7031 48.6907 57.313 52.6401 61.7661 52.6401Z" fill="white"/>
<path d="M65.7727 49.9199C66.7771 49.9199 67.5913 49.1464 67.5913 48.1921C67.5913 47.2379 66.7771 46.4644 65.7727 46.4644C64.7683 46.4644 63.9541 47.2379 63.9541 48.1921C63.9541 49.1464 64.7683 49.9199 65.7727 49.9199Z" fill="black"/>
<path d="M29.2097 51.2295C30.4063 51.2295 31.3764 50.3079 31.3764 49.1711C31.3764 48.0343 30.4063 47.1128 29.2097 47.1128C28.013 47.1128 27.043 48.0343 27.043 49.1711C27.043 50.3079 28.013 51.2295 29.2097 51.2295Z" fill="black"/>
<path d="M39.1191 74.6568C39.1191 76.4185 44.511 88.2435 48.5247 87.8723C52.5384 87.5011 60.9069 71.9908 58.3068 71.5386C55.6997 71.0864 39.1191 72.8952 39.1191 74.6568Z" fill="#BE1622"/>
<path d="M50.3923 80.3875C50.1224 78.302 49.8524 76.2164 49.5825 74.1309C49.554 73.9014 49.3978 73.7124 49.142 73.7124C48.9218 73.7124 48.666 73.9081 48.7016 74.1309C48.9715 76.2164 49.2415 78.302 49.5114 80.3875C49.5398 80.617 49.6961 80.806 49.9519 80.806C50.165 80.8127 50.4207 80.617 50.3923 80.3875Z" fill="white"/>
</svg>
